<?xml version="1.0" encoding="UTF-8" standalone="no"?>
<svg width="32px" height="50px" viewBox="0 0 32 50" version="1.1" xmlns="http://www.w3.org/2000/svg" xmlns:xlink="http://www.w3.org/1999/xlink">
    <!-- Generator: Sketch 39.1 (31720) - http://www.bohemiancoding.com/sketch -->
    <title>double_espresso</title>
    <desc>Created with Sketch.</desc>
    <defs></defs>
    <g id="Page-1" stroke="none" stroke-width="1" fill="none" fill-rule="evenodd">
        <g id="blindDev-layout" transform="translate(-704.000000, -2680.000000)" fill="#FFFFFF">
            <g id="double_espresso" transform="translate(704.000000, 2680.000000)">
                <polygon id="Shape" points="11.2706587 6.93083832 11.8149701 7.83473054 13.0431138 7.09520958 13.0706587 8.58383234 14.1260479 8.56407186 14.098503 7.0757485 15.4008982 7.79610778 15.911976 6.87245509 14.608982 6.15209581 15.8844311 5.38413174 15.3398204 4.47994012 14.0646707 5.24790419 14.038024 3.81467066 12.9826347 3.83413174 13.0092814 5.26766467 11.7547904 4.5739521 11.244012 5.49760479 12.498503 6.19131737"></polygon>
                <path d="M27.5338323,19.7086826 L27.0583832,19.2239521 C27.9128743,18.1571856 28.3874251,16.8467066 28.4002994,15.4580838 C28.4152695,13.8185629 27.7913174,12.2718563 26.6434132,11.1023952 C24.4511976,8.86946108 20.957485,8.6748503 18.5326347,10.5320359 L18.4973054,10.4961078 L17.9712575,11.0122754 C17.9682635,11.0152695 17.9649701,11.0176647 17.961976,11.0206587 L16.6805389,12.2781437 L16.6811377,12.2787425 L2.04431138,26.6446108 L5.81916168,30.491018 L1.97305389,34.2658683 L7.23473054,39.6323353 C9.93083832,42.3793413 13.5356287,43.8922156 17.3853293,43.8922156 C21.1335329,43.8922156 24.6709581,42.4461078 27.3461078,39.8203593 C32.942515,34.3272455 33.0266467,25.3050898 27.5338323,19.7086826 L27.5338323,19.7086826 Z M25.5748503,12.1511976 C26.4428144,13.0356287 26.9146707,14.2050898 26.9032934,15.4446108 C26.8943114,16.4317365 26.5748503,17.3661677 26,18.1449102 L19.5919162,11.611976 C21.4170659,10.3266467 23.9616766,10.5077844 25.5748503,12.1511976 L25.5748503,12.1511976 Z M26.2973054,38.7517964 C23.9035928,41.1011976 20.7386228,42.3949102 17.3850299,42.3949102 C13.9407186,42.3949102 10.7152695,41.0413174 8.30299401,38.5838323 L4.08982036,34.2856287 L6.86766467,31.5592814 L11.0808383,35.857485 C12.7553892,37.5634731 14.9943114,38.5032934 17.3850299,38.502994 C19.7128743,38.502994 21.9098802,37.6047904 23.5712575,35.9742515 C27.047006,32.5625749 27.0994012,26.9598802 23.688024,23.4838323 L18.4263473,18.1176647 L6.88772455,29.442515 L4.16137725,26.6646707 L18.4778443,12.6131737 L26.4658683,20.7571856 C31.3802395,25.7646707 31.3047904,33.8371257 26.2973054,38.7517964 L26.2973054,38.7517964 Z M7.93592814,30.5107784 L18.405988,20.2344311 L22.6191617,24.5323353 C25.4523952,27.4191617 25.4086826,32.0727545 22.5221557,34.9056886 C21.142515,36.2598802 19.3176647,37.005988 17.3844311,37.005988 C15.3991018,37.0062874 13.539521,36.2260479 12.1488024,34.808982 L7.93592814,30.5107784 L7.93592814,30.5107784 Z" id="Shape"></path>
                <rect id="Rectangle-path" x="11.398503" y="48.2287425" width="13.4730539" height="1.49700599"></rect>
                <path d="M6.30239521,2.55748503 C6.95808383,3.58443114 7.17365269,4.80598802 6.91317365,5.98562874 L6.21556886,8.95269461 C5.67964072,11.3808383 6.68562874,13.794012 8.57784431,15.1652695 L9.66467066,14.0994012 C8.10479042,13.0934132 7.25449102,11.1922156 7.67365269,9.28502994 L8.37125749,6.31796407 C8.72155689,4.73712575 8.43413174,3.11736527 7.56287425,1.75209581 C7.14670659,1.0994012 6.62275449,0.54251497 6.01197605,0.10239521 L4.92215569,1.17125749 C5.47305389,1.52155689 5.94011976,1.99161677 6.30239521,2.55748503 L6.30239521,2.55748503 Z" id="Shape"></path>
                <path d="M3.00598802,20.6383234 L4.0748503,19.5874251 L3.57784431,19.1113772 C2.55389222,18.1293413 1.91616766,16.808982 1.78742515,15.3898204 C1.65568862,13.9766467 2.03892216,12.5664671 2.86227545,11.4167665 L3.77844311,10.2520958 L2.60179641,9.32694611 L1.67664671,10.5035928 L1.65568862,10.5305389 C0.616766467,11.9736527 0.131736527,13.7491018 0.296407186,15.5275449 C0.458083832,17.302994 1.25748503,18.9616766 2.54191617,20.1952096 L3.00598802,20.6383234 L3.00598802,20.6383234 Z" id="Shape"></path>
            </g>
        </g>
    </g>
</svg>