<?xml version="1.0" encoding="UTF-8" standalone="no"?>
<svg width="44px" height="74px" viewBox="0 0 44 74" version="1.1" xmlns="http://www.w3.org/2000/svg" xmlns:xlink="http://www.w3.org/1999/xlink">
    <!-- Generator: Sketch 39.1 (31720) - http://www.bohemiancoding.com/sketch -->
    <title>Shape</title>
    <desc>Created with Sketch.</desc>
    <defs></defs>
    <g id="Page-1" stroke="none" stroke-width="1" fill="none" fill-rule="evenodd">
        <g id="layout" transform="translate(-698.000000, -2529.000000)" stroke="#230061" fill="#230061">
            <path d="M741,2579.97553 C740.839838,2575.01001 740.039027,2568.12236 739.718702,2566.84093 C739.318296,2565.39933 736.755701,2558.19132 735.874808,2555.94883 L732.831726,2548.901 C734.913835,2541.85317 736.195133,2537.60845 736.515457,2536.48721 C736.835782,2535.36596 736.835782,2534.16463 736.515457,2533.12347 C736.115052,2531.84205 735.154078,2530.88098 733.792699,2530.32036 C733.312212,2530.08009 732.671563,2530 732.110996,2530 C730.189049,2530 728.427264,2531.20133 727.626453,2533.04338 C727.46629,2533.44383 727.065885,2534.56507 726.425236,2536.40712 C726.184993,2536.32703 725.944749,2536.16685 725.784587,2536.08676 C724.983776,2535.8465 724.022802,2535.76641 722.981748,2536.08676 C722.901667,2536.08676 722.821585,2536.16685 722.741504,2536.16685 C720.899638,2536.80756 719.858584,2538.40934 719.858584,2540.33148 L719.858584,2540.57175 L719.858584,2540.81201 C719.858584,2540.97219 719.858584,2541.13237 719.938665,2541.29255 C719.938665,2541.45273 720.018746,2541.6129 720.018746,2541.77308 L720.018746,2541.93326 L720.018746,2541.93326 C720.018746,2542.01335 720.018746,2542.01335 720.098827,2542.09344 L720.098827,2542.09344 C720.098827,2542.17353 720.098827,2542.17353 720.178908,2542.25362 L720.178908,2542.25362 C720.178908,2542.3337 720.178908,2542.41379 720.25899,2542.49388 L720.25899,2542.49388 C720.579314,2543.93548 721.300044,2546.49833 722.020774,2549.46162 C720.579314,2553.70634 719.217935,2557.95106 718.256961,2560.67408 C718.016718,2561.47497 717.776475,2562.11568 717.616313,2562.67631 C717.376069,2561.87542 717.135826,2561.15462 716.815501,2560.43382 C715.934609,2558.03115 714.172824,2556.66963 711.850472,2556.66963 C711.049661,2556.66963 710.168768,2556.82981 709.287876,2557.23026 C707.766335,2557.87097 706.645199,2558.99221 706.00455,2560.35373 C705.524063,2561.55506 705.443982,2562.91657 705.924469,2564.198 C705.524063,2564.03782 705.043576,2564.03782 704.56309,2564.03782 C703.84236,2564.03782 703.041548,2564.198 702.320818,2564.51835 C700.959439,2565.07898 699.918385,2566.04004 699.357817,2567.32147 C698.957411,2568.36263 698.87733,2569.48387 699.197655,2570.52503 L699.197655,2571.72636 L699.197655,2581.49722 C699.197655,2586.94327 701.520007,2592.14905 705.524063,2595.99333 C709.528119,2599.8376 714.893554,2602 720.499233,2602 C734.59351,2602 741,2591.42825 741,2581.01669 C741,2580.9366 741,2580.05562 741,2579.97553 L741,2579.97553 Z M729.308156,2533.76418 C729.788643,2532.64294 730.909779,2531.84205 732.030914,2531.84205 C732.351239,2531.84205 732.751644,2531.92214 733.071969,2532.08231 C735.474403,2533.12347 734.913835,2535.52614 734.753673,2536.00667 C734.433348,2537.04783 733.392293,2540.57175 731.71059,2546.33815 C731.71059,2546.25806 731.630509,2546.17798 731.630509,2546.09789 C729.788643,2541.69299 728.747588,2539.29032 728.587426,2538.88988 C728.587426,2538.80979 728.507345,2538.7297 728.507345,2538.64961 L728.507345,2538.56952 C728.507345,2538.48943 728.427264,2538.40934 728.427264,2538.32925 L728.347183,2538.24917 L728.267102,2538.16908 C728.187021,2538.08899 728.106939,2537.92881 728.026858,2537.84872 C728.907751,2534.96552 729.228075,2534.00445 729.308156,2533.76418 L729.308156,2533.76418 Z M718.89761,2564.67853 C718.977692,2564.51835 719.298016,2563.55729 720.018746,2561.31479 C720.739476,2559.15239 721.780531,2556.10901 722.901667,2552.82536 C724.263046,2558.3515 725.704506,2564.11791 726.02483,2565.55951 L726.02483,2565.6396 L726.02483,2565.71969 C726.02483,2565.79978 726.02483,2565.87987 726.104911,2565.87987 L726.104911,2565.87987 C726.104911,2565.95996 726.104911,2565.95996 726.184993,2566.04004 L726.184993,2566.04004 C726.184993,2566.12013 726.184993,2566.12013 726.265074,2566.12013 L726.265074,2566.12013 L726.345155,2566.20022 L726.345155,2566.20022 L726.425236,2566.28031 L726.425236,2566.28031 L726.505317,2566.3604 L726.505317,2566.3604 C726.505317,2566.3604 726.585398,2566.3604 726.585398,2566.44049 L726.585398,2566.44049 L726.665479,2566.44049 L726.665479,2566.44049 L726.825641,2566.44049 L726.825641,2566.44049 L726.825641,2566.44049 L727.065885,2566.44049 C727.546372,2566.28031 727.946777,2565.79978 727.786615,2565.31924 C727.786615,2565.15907 724.743532,2553.14572 723.061829,2546.0178 L723.061829,2546.0178 C722.261018,2543.61513 722.020774,2542.09344 721.780531,2541.37264 L721.780531,2541.37264 C721.780531,2541.29255 721.70045,2541.29255 721.70045,2541.21246 L721.70045,2541.13237 C721.620369,2540.8921 721.620369,2540.57175 721.540287,2540.25139 C721.540287,2539.53059 721.780531,2538.64961 722.661423,2538.08899 C722.821585,2538.0089 722.981748,2537.92881 723.14191,2537.84872 C723.221991,2537.84872 723.302072,2537.76863 723.462234,2537.76863 L723.542316,2537.76863 C723.622397,2537.76863 723.702478,2537.76863 723.782559,2537.68854 L723.86264,2537.68854 L724.102883,2537.68854 L724.182964,2537.68854 C724.423208,2537.68854 724.663451,2537.68854 724.903695,2537.76863 L724.983776,2537.76863 C725.063857,2537.76863 725.063857,2537.76863 725.143938,2537.84872 C725.143938,2537.84872 725.224019,2537.84872 725.224019,2537.92881 C725.3041,2537.92881 725.3041,2537.92881 725.384181,2538.0089 C725.464262,2538.0089 725.464262,2538.08899 725.544344,2538.08899 L725.624425,2538.08899 C725.704506,2538.08899 725.704506,2538.16908 725.784587,2538.16908 C726.265074,2538.48943 726.665479,2538.96997 726.825641,2539.4505 C726.905723,2539.53059 726.985804,2539.77086 727.065885,2540.09121 L727.065885,2540.09121 L727.065885,2540.09121 C728.106939,2542.57397 731.71059,2551.0634 733.312212,2554.90768 L734.032942,2556.58954 C734.113024,2556.66963 734.113024,2556.82981 734.193105,2556.98999 C734.193105,2557.07008 734.193105,2557.07008 734.273186,2557.15017 C734.513429,2557.79088 734.833754,2558.59177 735.154078,2559.55284 C736.195133,2562.43604 737.556512,2566.28031 737.796755,2567.24138 C738.036999,2568.12236 738.437404,2571.56618 738.757729,2575.17019 L738.757729,2575.17019 C738.517485,2574.92992 738.277242,2574.68966 737.956917,2574.44939 C737.956917,2574.44939 737.956917,2574.44939 737.876836,2574.3693 C737.796755,2574.28921 737.796755,2574.28921 737.716674,2574.20912 L737.636593,2574.12903 C737.556512,2574.12903 737.556512,2574.04894 737.476431,2574.04894 C737.39635,2574.04894 737.39635,2573.96885 737.316268,2573.96885 C737.236187,2573.96885 737.236187,2573.88877 737.156106,2573.88877 C737.076025,2573.88877 737.076025,2573.80868 736.995944,2573.80868 C736.915863,2573.80868 736.915863,2573.72859 736.835782,2573.72859 C736.755701,2573.72859 736.675619,2573.6485 736.595538,2573.6485 C736.515457,2573.6485 736.515457,2573.6485 736.435376,2573.56841 C736.355295,2573.48832 736.195133,2573.48832 736.03497,2573.40823 C735.954889,2573.40823 735.954889,2573.40823 735.874808,2573.32814 C735.794727,2573.32814 735.714646,2573.24805 735.634565,2573.24805 L735.474403,2573.24805 C735.394321,2573.24805 735.31424,2573.24805 735.234159,2573.16796 L735.073997,2573.16796 C734.993916,2573.16796 734.913835,2573.16796 734.753673,2573.08788 L734.59351,2573.08788 L734.273186,2573.08788 L734.113024,2573.08788 L733.632537,2573.08788 C727.706534,2573.08788 723.302072,2571.88654 720.018746,2570.44494 C719.938665,2570.28476 719.938665,2570.12458 719.858584,2569.9644 C719.298016,2568.5228 718.817529,2566.92102 718.337043,2565.39933 C718.577286,2565.31924 718.737448,2565.07898 718.89761,2564.67853 L718.89761,2564.67853 Z M707.766335,2561.15462 C708.16674,2560.19355 708.967551,2559.47275 710.008606,2558.99221 C710.649255,2558.75195 711.289904,2558.59177 711.850472,2558.59177 C713.372013,2558.59177 714.493149,2559.47275 715.053717,2561.07453 C715.534203,2562.43604 716.01469,2563.95773 716.495177,2565.47942 C716.895582,2566.76085 717.295988,2567.96218 717.696394,2569.2436 C716.01469,2568.36263 714.653311,2567.40156 713.532175,2566.60067 C711.850472,2565.47942 710.649255,2564.59844 709.528119,2564.59844 C709.047633,2564.59844 708.567146,2564.67853 708.086659,2564.75862 C707.926497,2564.51835 707.846416,2564.198 707.686253,2563.95773 C707.44601,2563.15684 707.44601,2562.11568 707.766335,2561.15462 L707.766335,2561.15462 Z M701.119601,2568.12236 C701.439926,2567.32147 702.160656,2566.68076 703.041548,2566.28031 C703.602116,2566.04004 704.162684,2565.95996 704.643171,2565.95996 C705.043576,2565.95996 705.443982,2566.04004 705.764307,2566.20022 C704.803333,2567.16129 704.242765,2568.44271 704.242765,2569.64405 C704.242765,2570.84538 705.203739,2575.33037 709.367957,2579.49499 C709.448038,2579.57508 709.448038,2579.57508 709.528119,2579.65517 C709.287876,2579.81535 708.967551,2579.97553 708.647227,2580.13571 C708.326902,2580.2158 708.086659,2580.29588 707.846416,2580.29588 C706.885442,2580.29588 705.844388,2579.33482 704.322846,2577.01224 C703.201711,2575.25028 702.721224,2574.20912 701.920413,2572.28699 C701.680169,2571.80645 701.439926,2571.24583 701.199683,2570.60512 C700.799277,2569.80423 700.799277,2568.92325 701.119601,2568.12236 L701.119601,2568.12236 Z M734.833754,2594.15128 C731.550428,2598.07564 726.665479,2600.23804 720.659395,2600.23804 C715.534203,2600.23804 710.409012,2598.31591 706.805361,2594.7119 C703.041548,2591.18799 700.799277,2586.54283 700.799277,2581.57731 L700.799277,2574.92992 C701.359845,2575.97108 701.920413,2577.01224 702.561062,2577.9733 C704.242765,2580.45606 705.844388,2582.05784 707.926497,2582.05784 L707.926497,2582.05784 C708.246821,2582.05784 708.807389,2581.97775 709.367957,2581.81758 C710.008606,2581.57731 710.569174,2581.25695 710.969579,2580.9366 C713.051689,2582.61846 715.454122,2584.06007 718.256961,2585.10122 C722.501261,2586.703 727.546372,2587.50389 733.232131,2587.50389 C733.712618,2587.50389 734.113024,2587.10345 734.113024,2586.62291 C734.113024,2586.14238 733.712618,2585.74194 733.232131,2585.74194 C723.382153,2585.74194 715.534203,2583.17909 710.729336,2578.29366 C706.965523,2574.52948 706.164712,2570.52503 706.164712,2569.72414 C706.164712,2568.20245 707.285848,2566.68076 709.768363,2566.68076 C710.32893,2566.68076 711.450066,2567.48165 712.731364,2568.36263 C716.254933,2570.76529 722.180936,2574.84983 732.991888,2575.0901 L732.991888,2575.0901 L733.952861,2575.0901 C737.876836,2575.0901 739.398378,2578.29366 739.398378,2580.37597 L739.398378,2581.17686 C739.238215,2586.30256 737.636593,2590.78754 734.833754,2594.15128 L734.833754,2594.15128 Z" id="Shape"></path>
        </g>
    </g>
</svg>