<?xml version="1.0" encoding="UTF-8" standalone="no"?>
<svg width="68px" height="41px" viewBox="0 0 68 41" version="1.1" xmlns="http://www.w3.org/2000/svg" xmlns:xlink="http://www.w3.org/1999/xlink">
    <!-- Generator: Sketch 39.1 (31720) - http://www.bohemiancoding.com/sketch -->
    <title>Group 2</title>
    <desc>Created with Sketch.</desc>
    <defs></defs>
    <g id="Page-1" stroke="none" stroke-width="1" fill="none" fill-rule="evenodd">
        <g id="layout" transform="translate(-603.000000, -2684.000000)" fill="#FFFFFF">
            <g id="Group-3" transform="translate(603.000000, 2684.000000)">
                <g id="Group-2">
                    <g id="IMG_1736" transform="translate(7.000000, 0.000000)">
                        <g id="Group">
                            <path d="M11.8173596,0.793924137 L11.8150204,0.795962347 C11.6024349,0.982526937 11.4847811,1.15194927 11.2660195,1.52960338 C11.2639615,1.5331563 11.2639615,1.5331563 11.2619085,1.53670042 C11.1656105,1.70293706 11.1204009,1.77679608 11.0636145,1.85634786 C11.0565328,1.86626863 11.0498713,1.87648043 11.0436475,1.88695643 C10.9271065,2.08312073 10.8482761,2.24452461 10.6888937,2.59517625 C10.6824527,2.60934738 10.6824527,2.60934738 10.6760323,2.62347035 C10.5877253,2.81769278 10.5405484,2.91805439 10.4846031,3.02737544 C10.4760904,3.04400984 10.4686592,3.06117169 10.4623555,3.07875498 C10.4347395,3.15578516 10.4123769,3.21941521 10.3655418,3.35361213 C10.3596131,3.37060017 10.3596131,3.37060017 10.3536951,3.38755393 C10.2041704,3.81585998 10.1255856,4.02330214 10.0189081,4.25284807 C10.0156551,4.25984784 10.0125891,4.26693236 10.0097134,4.27409415 C9.93132837,4.4693106 9.88032728,4.64456293 9.80358238,4.95288785 C9.79991493,4.96762195 9.79780092,4.97613635 9.7901682,5.00689798 C9.70003771,5.37014472 9.653458,5.52568008 9.57461466,5.6963082 C9.56527128,5.71652861 9.55749623,5.73743197 9.55135772,5.75883496 C9.26201835,6.76766646 9.02671355,7.81078548 8.76366426,9.18216796 C8.75979628,9.20233331 8.75736308,9.22274559 8.75638284,9.24325243 C8.75587091,9.25396202 8.75545162,9.26333478 8.75470578,9.2804572 C8.75227987,9.33614909 8.75112574,9.35796339 8.74899819,9.38379423 C8.74602303,9.41991588 8.74203718,9.44618342 8.73701136,9.46549491 C8.7337827,9.47790089 8.73099657,9.48459533 8.72890663,9.48789179 C8.70060128,9.53253795 8.68067341,9.58193385 8.67009343,9.63367417 C8.55108969,10.2156497 8.47585528,10.6836201 8.32361354,11.7248037 C8.30141958,11.8765885 8.2922865,11.9389338 8.28024909,12.0206263 L8.28025067,12.0206156 C8.27888688,12.0298711 8.27782337,12.0391571 8.27706024,12.0484699 C8.24810932,12.4017682 8.20671952,12.7334381 8.12628307,13.2966606 C8.12071718,13.3356334 8.11642689,13.3655789 8.10608041,13.4377224 C7.97763439,14.3333451 7.92943233,14.7378561 7.90497407,15.2530045 C7.89818181,15.3883007 7.88731168,15.5010733 7.85846057,15.7591579 C7.81329802,16.1631549 7.79867121,16.3467717 7.80266901,16.5857261 C7.80272973,16.5893552 7.80283594,16.5929833 7.80298761,16.5966098 C7.80377847,16.6155181 7.79890985,16.6446186 7.77822321,16.730797 C7.73887509,16.8947171 7.72494495,16.9779797 7.7302182,17.1040559 L8.16759095,17.0859077 L7.73579291,17.0142402 C7.72366468,17.0867325 7.72311519,17.1328541 7.72648168,17.2301391 C7.72679731,17.2392602 7.72693703,17.2434233 7.72708212,17.2481711 C7.72764705,17.2666567 7.72768526,17.2772551 7.72737376,17.2834905 C7.72745926,17.2817791 7.72821686,17.2760993 7.73077554,17.2659633 C7.74308106,17.2172161 7.77620842,17.1655129 7.82393884,17.1311722 C7.71240667,17.2114165 7.64524139,17.3392197 7.64259644,17.4762336 C7.63977837,17.6222149 7.63211823,17.7432832 7.6110961,18.0116036 C7.5884412,18.3007642 7.58035828,18.4272757 7.57710717,18.5924508 L7.5771072,18.5924494 L8.01477519,18.6009969 L7.58815789,18.5032824 C7.52061299,18.7958375 7.480872,19.0300597 7.40332859,19.5487373 C7.39629994,19.595751 7.39360415,19.6137666 7.38990417,19.6384197 C7.3154411,20.1345713 7.26620642,20.4064233 7.19087244,20.695066 L7.61454343,20.8047631 L7.23274519,20.5914729 C7.19388221,20.6604865 7.16315541,20.7254787 7.1169224,20.831 C7.11617604,20.8327035 7.09119733,20.8898994 7.08416536,20.9058564 C6.98853843,21.1228531 6.95294428,21.1644411 6.91408281,21.167837 L6.95234179,21.6021785 L7.04359928,21.1757481 C6.81679825,21.1275975 6.62448508,21.0464335 6.22362796,20.8445529 C6.11280312,20.788739 6.10425645,20.7844451 6.06029194,20.7626339 C6.00264031,20.7340323 5.95167478,20.7092787 5.90237454,20.6860619 L5.90626815,20.6879189 C5.54955705,20.5156267 5.27307426,20.3473615 4.66023727,19.9464638 C4.65848677,19.9453187 4.65848677,19.9453187 4.65673602,19.9441734 C4.28618004,19.7017677 4.11818688,19.5944816 3.90179064,19.4660556 L3.98017004,19.5254103 C3.81441415,19.3676245 3.67412404,19.2658713 3.36275604,19.0606643 C3.3600158,19.0588583 3.3600158,19.0588583 3.35727935,19.0570548 C3.10717708,18.8922231 3.00049713,18.8157263 2.8886447,18.7139891 C2.87541021,18.7019515 2.86144599,18.6907347 2.84683089,18.6804022 C2.76974201,18.6259023 2.70265982,18.5693901 2.57009636,18.4503015 C2.56544153,18.4461198 2.54691347,18.4294675 2.54230583,18.4253282 C2.40085475,18.2982535 2.32217573,18.2312353 2.22122249,18.1566197 L1.96036019,18.5067569 L2.2259617,18.1601724 C2.14771962,18.1006887 2.08417251,18.0399563 1.9412377,17.8925297 C1.9396306,17.8908721 1.9396306,17.8908721 1.9380204,17.8892113 C1.71403178,17.6581836 1.60068687,17.5545897 1.42346796,17.4426349 C1.41535818,17.4375117 1.40708134,17.4326557 1.39865086,17.4280748 C1.38100742,17.4184878 1.35643464,17.3972122 1.29336309,17.3334832 C1.28888592,17.3289584 1.28888592,17.3289584 1.2842786,17.3243017 C1.16984882,17.2086691 1.10360889,17.1503009 0.996944625,17.087512 C0.887797497,17.0232616 0.756044013,17.0093002 0.635767899,17.0492396 C0.474755157,17.1027061 0.341457499,17.2022987 0.250171966,17.3477993 C0.142163618,17.5199546 0.167732246,17.7435765 0.311838809,17.8871343 C0.377242115,17.9522886 0.429352642,18.0037951 0.546325621,18.1191088 C0.777065631,18.3465758 0.879112489,18.4482341 1.00570066,18.578281 L1.31998937,18.2747816 L0.9804621,18.5499935 C1.31434029,18.9586247 1.55062606,19.2302549 1.80983943,19.4917813 C2.14248915,19.8273992 2.47338218,20.1002072 2.82819787,20.3197273 L3.0591783,19.9493539 L2.74961408,20.2576328 C2.98065473,20.4877936 3.22951988,20.6819957 3.49565193,20.8346397 L3.714103,20.4568 L3.41715676,20.7771561 C3.61711982,20.9610345 3.82296673,21.135434 4.02747556,21.2938907 C4.05902941,21.3183391 4.09379692,21.3383672 4.13080859,21.3534165 C4.23246058,21.3947491 4.31893089,21.4482847 4.51017678,21.5828271 C4.52069919,21.5902304 4.52619159,21.5940945 4.53133995,21.5977148 C4.78459436,21.7758019 4.92329825,21.8595685 5.12040085,21.9316978 L5.27136839,21.5224369 L5.01319903,21.8745487 C5.47960358,22.2138012 6.03648228,22.4726884 6.67685545,22.6709653 C6.70585053,22.679943 6.73570472,22.6858916 6.76593588,22.6887149 C7.06316784,22.7164743 7.35590583,22.6938679 7.6274585,22.6153302 C7.68425963,22.5989024 7.73712918,22.5711798 7.78287517,22.5338362 C8.35237979,22.0689359 8.67844707,21.3665532 8.81117409,20.5165573 L8.78458168,20.6126789 C8.89519373,20.3395972 8.94398105,20.122347 9.02379367,19.6459269 C9.02797069,19.6209934 9.02948977,19.6119326 9.03164356,19.5991196 C9.05879606,19.4375869 9.07623223,19.3421659 9.09752848,19.2442498 L8.66969989,19.1519385 L8.97926411,19.4602174 C9.1215463,19.318477 9.1987425,19.1262214 9.17804968,18.9200813 L8.7424693,18.9634585 L9.17991018,18.9798971 C9.19716536,18.5243761 9.25597877,18.1334673 9.40801698,17.3418063 C9.41102724,17.326132 9.41348089,17.3133639 9.41895675,17.2848749 C9.57943676,16.4499457 9.6392455,16.0707758 9.66707712,15.5809561 L9.23002436,15.55632 L9.66393778,15.6139349 C9.67024122,15.5668392 9.67149148,15.5360012 9.67221986,15.4725236 C9.67231205,15.4644894 9.672354,15.461117 9.67241529,15.4571296 C9.67263975,15.4425259 9.67296772,15.4347405 9.67330489,15.4312166 C9.67283205,15.4361584 9.67131565,15.4446011 9.66756001,15.4571089 C9.65151472,15.5105457 9.61358528,15.5646607 9.56019786,15.6001167 C9.67436066,15.524298 9.74622578,15.3995496 9.75433469,15.2631207 C9.78737585,14.707217 9.85841449,14.2592828 10.0521656,13.2518586 C10.0631559,13.1947138 10.0675608,13.1717995 10.0734269,13.1412393 C10.1685568,12.6456451 10.2204503,12.355523 10.2671305,12.0384606 L9.83401047,11.9752 L10.1982616,12.2170259 C10.1970078,12.2188994 10.1969412,12.2189923 10.1975371,12.2182009 C10.1992441,12.2159335 10.2014494,12.2131232 10.2037967,12.2102453 C10.2061554,12.2073534 10.2084175,12.2046873 10.2102148,12.2026603 C10.2108043,12.2019955 10.2106482,12.2021624 10.2090672,12.2037374 C10.2819901,12.1310921 10.3268187,12.0351341 10.3356481,11.9327841 C10.3794375,11.4251751 10.4666761,11.0170914 10.7035834,10.097391 C10.7093742,10.0749104 10.7093742,10.0749104 10.7151704,10.0524038 C10.8097208,9.68521801 10.8583725,9.48942767 10.9088283,9.26503654 C10.9107959,9.25628573 10.9124921,9.24747655 10.9139143,9.23862155 L10.9139125,9.23863315 C10.9164378,9.22290996 10.9182174,9.21162002 10.9227594,9.1826389 C10.9535729,8.98602597 10.9717372,8.91152314 11.0080388,8.84220986 C11.0222184,8.81513588 11.0335031,8.78665314 11.0417073,8.75723055 C11.0715832,8.65008687 11.0927336,8.56408449 11.1363855,8.37826751 C11.1404543,8.36094676 11.1423088,8.35305477 11.144503,8.34372729 C11.2273098,7.99171608 11.2771059,7.82312349 11.358035,7.65180397 C11.3653724,7.63627142 11.3717824,7.62032083 11.3772316,7.60403551 C11.4104228,7.50484108 11.4260541,7.42937796 11.451167,7.27729915 C11.4514843,7.27537791 11.4514843,7.27537791 11.4517999,7.27346588 C11.4740924,7.1384427 11.4858687,7.08836163 11.5049484,7.04717985 C11.5085359,7.03943646 11.5118946,7.0315899 11.51502,7.0236503 C11.5703506,6.88309461 11.6092411,6.76155892 11.6760167,6.53375817 C11.6799088,6.5204763 11.6799088,6.5204763 11.6837766,6.50727059 C11.7728415,6.20318796 11.8169075,6.0737482 11.886295,5.93262143 C11.890514,5.92404055 11.8944486,5.91532386 11.8980925,5.90648548 C11.9597252,5.75699475 12.0030631,5.62559134 12.0746651,5.38622111 C12.0774382,5.37695046 12.0798181,5.36898599 12.0849292,5.35187603 C12.1860397,5.0134216 12.2372207,4.87044006 12.3210851,4.71775426 C12.3242081,4.71206848 12.3272034,4.70631406 12.3300688,4.70049528 C12.4169859,4.52399282 12.4709153,4.38231667 12.5775754,4.07309555 C12.5811957,4.06259985 12.5811957,4.06259985 12.584802,4.05214692 C12.6796722,3.77721191 12.7297944,3.64777111 12.8001159,3.51025827 C12.8026826,3.50523922 12.8051513,3.50017111 12.8075208,3.49505678 C12.8511188,3.40095419 12.8814399,3.32608144 12.9437142,3.16469487 C12.9460289,3.15869618 12.9460289,3.15869618 12.9483338,3.1527236 C13.0426578,2.90832514 13.0906407,2.80239379 13.1599766,2.6987859 L12.7957255,2.45696005 L13.1320398,2.73605833 C13.1730237,2.68706489 13.2034207,2.63579472 13.2288262,2.5797713 C13.2435693,2.54726026 13.2529478,2.5225144 13.2680988,2.47956786 C13.2689707,2.47709568 13.2689707,2.47709568 13.2698048,2.47472979 C13.2764322,2.45593337 13.2791711,2.44848565 13.2811851,2.44360611 C13.2813152,2.44329075 13.2810173,2.44395543 13.2801733,2.44566346 C13.2780832,2.44989353 13.2753207,2.45489553 13.2716741,2.46072626 C13.239645,2.51193894 13.1833705,2.55975828 13.1082401,2.58314712 L12.977649,2.16699082 L12.5423013,2.21262663 C12.5436337,2.22523567 12.5446348,2.23834499 12.5466874,2.2691973 C12.5478929,2.28731645 12.548374,2.29438765 12.5491243,2.30465655 C12.5565929,2.40687772 12.5678415,2.48150235 12.5961425,2.56659726 C12.6403335,2.69947018 12.7184488,2.8156706 12.8354155,2.90477507 L13.101357,2.55844928 L12.6672609,2.61468261 L12.6672622,2.61469216 C12.6811439,2.72100175 12.6921159,2.80392079 12.7178828,2.99781946 C12.8683958,4.13044755 12.9247785,4.63554214 12.9551939,5.26173363 C12.9572564,5.30419584 12.9655427,5.34612936 12.9797897,5.38620298 C13.0199374,5.49912951 13.0338081,5.60664401 13.0487666,5.87380491 C13.0545913,5.97783432 13.057515,6.02413235 13.0626646,6.0847867 C13.0728984,6.20532518 13.0875104,6.31062909 13.1104419,6.41446647 L13.5379735,6.32080004 L13.1008016,6.34324112 C13.1150804,6.6191955 13.1311268,6.83829854 13.1705985,7.32923233 C13.2158112,7.89156944 13.233381,8.14025859 13.2461318,8.44828762 C13.2475379,8.48225651 13.2529281,8.51594503 13.2621926,8.54866658 C13.2913271,8.65156839 13.2995431,8.75011178 13.3041465,8.99347656 C13.3043684,9.00520322 13.3044687,9.01047982 13.3045961,9.0170586 C13.3074127,9.16256331 13.3109646,9.24661457 13.3207013,9.34361107 C13.3229516,9.36602773 13.3269428,9.38823696 13.332639,9.41003925 C13.3893242,9.62700056 13.4089982,9.81659693 13.4324672,10.2610535 C13.4364003,10.335538 13.4381445,10.3678641 13.4405278,10.4093212 C13.4543728,10.6501562 13.4703395,10.8237797 13.4986722,11.0001846 C13.4999233,11.0079741 13.5013864,11.0157284 13.5030599,11.0234388 C13.5142609,11.075046 13.5181394,11.1293362 13.5215379,11.2659556 C13.5216288,11.2696117 13.5216288,11.2696117 13.5217206,11.2732942 C13.5251684,11.4113948 13.5291126,11.4826859 13.5420214,11.5734744 C13.5612479,11.7086952 13.5972694,11.8321056 13.6580577,11.9498549 L14.0473594,11.7504739 L13.6096532,11.7567911 C13.613029,11.9888324 13.6299234,12.2062379 13.6657053,12.5430275 C13.6692006,12.575926 13.6719399,12.6013987 13.6784151,12.6613765 C13.7114312,12.9671951 13.7243837,13.1029576 13.7340487,13.2690446 L13.7342349,13.2720634 C13.7504817,13.5213103 13.7758909,13.7175623 13.8400861,14.1415833 C13.9014282,14.5467597 13.9239525,14.7195926 13.9380136,14.9325073 C13.9392752,14.9516107 13.9417986,14.9706106 13.9455676,14.9893836 C13.9677695,15.0999704 13.9828239,15.2186881 13.9963079,15.3772523 C14.0003817,15.4251571 14.0033343,15.4634717 14.0099801,15.5527351 C14.0374351,15.9215008 14.056875,16.0906282 14.1089852,16.3093991 L14.1047058,16.2893451 C14.1443991,16.4995426 14.1811773,16.712875 14.2303694,17.0128242 C14.2398033,17.0703473 14.2465967,17.1120066 14.2645317,17.2221809 C14.3672777,17.8533475 14.4174534,18.1403671 14.4921815,18.4948604 L14.4846373,18.4447354 C14.5346313,18.9925753 14.6263238,19.4133808 14.8675746,20.3357386 C14.8747111,20.3630226 14.8779264,20.3753172 14.8818337,20.3902638 C14.9939686,20.8192225 15.0499197,21.0455568 15.1033846,21.3000276 L15.5318554,21.21072 L15.1026012,21.2962144 C15.1717317,21.6405503 15.2342657,21.8793515 15.328312,22.1171752 L15.3291574,22.1192967 C15.352884,22.1783875 15.3666911,22.2408703 15.3927934,22.399326 C15.3931283,22.401359 15.3931283,22.401359 15.3934644,22.403399 C15.4183748,22.5545978 15.4328178,22.6285188 15.4601994,22.7238619 C15.5006847,22.8648327 15.557343,22.9906281 15.639394,23.1069483 L15.9975796,22.8562954 L15.5711627,22.954874 C15.6485885,23.2871305 15.7383725,23.5431718 15.9513373,24.0863257 C15.9774102,24.1528232 15.9847392,24.1715323 15.997092,24.2031757 L16.4050883,24.0451692 L15.982872,24.1602961 C16.1182736,24.6529232 16.2869953,25.0228716 16.6838364,25.7792818 C16.690808,25.7925695 16.690808,25.7925695 16.6977712,25.8058404 C16.7378727,25.8822692 16.7576303,25.9199862 16.7806892,25.9642057 C16.7828305,25.968312 16.7850373,25.972384 16.7873087,25.9764203 C17.053196,26.4488997 17.4083637,26.8920998 17.8754957,27.3662332 C17.8958854,27.3869285 17.9182969,27.4055464 17.9423973,27.4218104 C18.1031282,27.530278 18.2376803,27.5962547 18.5124173,27.7146485 C18.5697669,27.7393624 18.5708686,27.7398378 18.5915351,27.7488194 C18.6465941,27.7727478 18.6891881,27.7917955 18.7292131,27.8105591 C18.7815978,27.8351168 18.8383532,27.8490804 18.8961932,27.8516413 C18.9356759,27.8533894 18.9666967,27.8553188 19.0483617,27.8608405 C19.1491795,27.8676571 19.1993811,27.8705872 19.2615943,27.8725946 C19.6136072,27.8839522 19.8871462,27.8340692 20.1460855,27.6641976 L19.905297,27.3000739 L20.0347535,27.7165816 C20.4379574,27.5922557 20.7616385,27.2951968 20.9797607,26.9020025 L20.5966064,26.6911385 L20.9493032,26.9493976 C21.3019578,26.4716137 21.537586,25.9412956 21.7780447,25.1843397 L21.7596513,25.2322425 C21.9222826,24.8735016 22.015684,24.5295586 22.1284682,23.9637471 C22.1370039,23.9209251 22.1422238,23.8944465 22.1593175,23.8074732 C22.1667053,23.7698834 22.1711419,23.7473504 22.1758656,23.72346 L21.7463631,23.6392123 L22.1686955,23.7539157 L22.1686905,23.7539341 C22.1794346,23.7146891 22.1872011,23.6868482 22.2089633,23.6092609 C22.3298175,23.1783893 22.3761826,22.9716877 22.3942188,22.6961857 L21.9573944,22.6678154 L22.38904,22.7403881 C22.4782474,22.214018 22.5841118,21.6598993 22.7061798,21.0746838 C22.7089398,21.0614518 22.7110807,21.0480992 22.7125955,21.0346691 C22.7320228,20.862424 22.7604642,20.6916237 22.8116365,20.4239924 C22.8174928,20.3933634 22.8220789,20.3695414 22.8330041,20.3129141 C22.9513431,19.6995444 22.9918556,19.4183552 22.9918556,19.0504493 L22.5541035,19.0504493 L22.9853842,19.1251432 C22.9903139,19.0969057 22.9939886,19.0732513 23.0004993,19.0293426 C23.005045,18.9986864 23.0061811,18.9911037 23.0082637,18.9777578 C23.0170132,18.9216862 23.0242342,18.8878859 23.0321093,18.8644029 C23.034706,18.8566594 23.0368424,18.8516519 23.0382845,18.8490025 C23.0379065,18.8496969 23.0364651,18.8517686 23.0341242,18.854392 C23.1017867,18.7785617 23.1407826,18.681604 23.1443959,18.580218 C23.1648028,18.0076119 23.2199427,17.5462465 23.3738667,16.5048074 C23.3787535,16.4717436 23.3809369,16.4569681 23.3836425,16.4386489 C23.4867666,15.7404099 23.5345176,15.3784517 23.572277,14.9571563 L23.5671787,14.9951197 C23.6260627,14.6670597 23.6771333,14.335148 23.7409317,13.8809426 C23.7543037,13.7857418 23.7641277,13.7149399 23.7887972,13.5364636 C23.9147365,12.6253311 23.978311,12.2173642 24.0814994,11.7232832 C24.0872956,11.69553 24.0903606,11.66728 24.090651,11.6389343 C24.0936782,11.3433923 24.1280042,11.1006327 24.230171,10.553835 C24.2441685,10.4789203 24.2496598,10.4494309 24.2570278,10.4094236 C24.3209365,10.0624074 24.3553553,9.83103709 24.3733157,9.58565972 L24.3676201,9.63081225 C24.3890107,9.5118364 24.4074958,9.41483402 24.4490264,9.20101214 C24.4537216,9.1768391 24.4558535,9.16586083 24.4584235,9.15261836 C24.5491861,8.6849443 24.5918087,8.4387565 24.6261701,8.14779684 C24.6270315,8.14050259 24.6277078,8.13318782 24.6281982,8.12585954 C24.6372682,7.99032655 24.6577488,7.86075557 24.703154,7.62920152 C24.7060084,7.61464514 24.708048,7.6042839 24.7136317,7.57595067 C24.7845278,7.21620707 24.8106854,7.04706657 24.8181328,6.82078377 L24.3806157,6.80649851 L24.7990163,6.93470261 C24.8499637,6.76975404 24.8755898,6.64128421 24.9218578,6.35986775 C24.9228373,6.35391024 24.9228373,6.35391024 24.9238138,6.34797248 C24.9706983,6.06291874 24.9985929,5.93669991 25.0501305,5.80577953 C25.0572391,5.78772151 25.06313,5.76921114 25.067764,5.75037179 C25.1355818,5.47465577 25.1968737,5.20498062 25.2856589,4.7987364 C25.296989,4.74689475 25.3048942,4.71063071 25.3267946,4.61009082 C25.5583572,3.54703486 25.6739533,3.07424736 25.8594558,2.50445936 L25.4430491,2.36996928 L25.7932726,2.6315463 C25.8140026,2.60401154 25.8252703,2.586426 25.8559052,2.53683386 C25.8655151,2.5212773 25.8695279,2.51483686 25.8734578,2.5087035 C25.8751845,2.50600852 25.8764511,2.50407775 25.8771592,2.50303233 C25.8766157,2.50383473 25.8754787,2.50544067 25.873319,2.50830937 L25.5230955,2.24673236 L25.4511174,2.67680785 L25.494779,2.68405708 L25.5667571,2.25398159 L25.195224,2.48455543 C25.3444629,2.72311992 25.4222824,2.97178678 25.5327299,3.49376872 C25.5361143,3.50976395 25.5380101,3.51874674 25.5452214,3.55293866 C25.5938872,3.78368558 25.6178844,3.89109725 25.6524453,4.02364987 L25.6446642,3.98760552 C25.6659391,4.11142278 25.68414,4.2142475 25.722514,4.42883254 C25.7561589,4.61697311 25.7694806,4.69191236 25.7868815,4.79171204 C25.9018428,5.45104952 25.9607113,5.89826872 25.9808425,6.34749128 C25.9820069,6.37347384 25.9855031,6.39930052 25.9912892,6.4246624 C26.0183793,6.54340534 26.0338404,6.67359035 26.0408832,6.82969594 C26.0455261,6.93260659 26.0463684,7.01779351 26.0460015,7.21149002 C26.045925,7.25183752 26.0458996,7.26968732 26.0458996,7.29219697 C26.0458996,7.31809313 26.0482159,7.3439378 26.0528211,7.3694245 C26.0694006,7.46118252 26.0847417,7.53258341 26.1196887,7.68690216 C26.1268946,7.71872233 26.1297664,7.73142857 26.1335373,7.74822036 C26.198572,8.03781856 26.2194665,8.19137108 26.2073321,8.34549527 C26.2066175,8.35457155 26.2061885,8.3636679 26.2060457,8.37277093 C26.202599,8.5925209 26.2154697,8.79332755 26.2472102,9.1145838 C26.2497053,9.1398367 26.2516723,9.15951524 26.2562668,9.20530768 C26.2853599,9.49526834 26.2959464,9.62288382 26.3008061,9.77780096 C26.3011872,9.78995022 26.3020782,9.80207829 26.3034768,9.81415338 C26.3151956,9.91532909 26.3195631,10.0025285 26.3253278,10.2051994 C26.3274239,10.2788943 26.3284281,10.3115102 26.3300115,10.3533125 C26.3402558,10.6237525 26.3626494,10.8198796 26.4175166,11.0228959 L26.8402218,10.9095631 L26.4039813,10.9457656 C26.416177,11.0915567 26.4261563,11.2039973 26.450271,11.4707739 C26.508402,12.1138673 26.5315352,12.4051442 26.5484923,12.7641104 L26.9857607,12.7436185 L26.5484811,12.7233644 C26.5409529,12.8846056 26.5528299,13.0005244 26.591011,13.2524381 C26.6231893,13.4647467 26.6311128,13.5529934 26.6225751,13.6465508 C26.6199142,13.675709 26.6202088,13.7050601 26.6234544,13.7341595 C26.623269,13.7324967 26.6233588,13.7347204 26.6233148,13.7405866 C26.6232442,13.7499982 26.6229004,13.7598168 26.6217885,13.7851898 C26.6213275,13.7957066 26.6211071,13.8008617 26.6208502,13.8073325 C26.6168959,13.9069393 26.6196194,13.9765743 26.6398884,14.0626552 C26.6732496,14.2043379 26.7497592,14.3301968 26.8726349,14.4238027 L27.1385764,14.077477 L26.7176618,14.197239 C26.7179284,14.1981686 26.7187635,14.2037611 26.7193941,14.2156973 C26.7203233,14.2332857 26.7202417,14.2519073 26.7191349,14.2993171 C26.7153881,14.4598193 26.7197,14.5414349 26.7540465,14.6611897 C26.7581433,14.6754739 26.7629704,14.6895402 26.7685088,14.7033336 C26.7891217,14.7546697 26.7945268,14.8186446 26.7919582,14.9986277 C26.7914442,15.0346404 26.7912444,15.0510559 26.7911199,15.0720771 C26.790295,15.2113694 26.7964145,15.3155448 26.8176058,15.4271294 C26.8181884,15.4301973 26.8188041,15.4332588 26.8194527,15.4363134 C26.8516038,15.5877217 26.8652123,15.7161473 26.8863405,16.0158276 C26.9045137,16.2735944 26.9152455,16.3909005 26.938775,16.5432596 C26.9398682,16.5503384 26.9411364,16.5573893 26.9425783,16.5644059 C27.0189012,16.9357939 27.0659702,17.2420711 27.1596203,17.9284443 C27.1793174,18.0728073 27.1873941,18.131733 27.1982227,18.209615 C27.2644354,18.6858326 27.3179686,19.0194001 27.3863375,19.3547039 L27.8153319,19.2679262 L27.3786919,19.2989853 C27.4076173,19.7023985 27.4976222,20.1049636 27.6524689,20.5949563 L28.0700249,20.4640492 L27.6362855,20.52295 C27.7257167,21.176281 27.7968423,21.5844663 27.9084828,22.0097017 C27.9094794,22.0134977 27.9105274,22.0172802 27.9116266,22.021048 C27.9564419,22.1746781 27.9925526,22.3076069 28.0650144,22.5814754 C28.0899122,22.675576 28.0940175,22.6910779 28.1047511,22.7314418 C28.2164389,23.1514442 28.2932103,23.4142225 28.3898436,23.6875358 C28.5155793,24.0431614 28.6571953,24.3543241 28.8304664,24.6402115 L28.7946499,24.5661071 C29.0316486,25.2044414 29.4304419,25.7493373 29.9541404,26.108009 L30.2021686,25.7487385 L29.8968729,26.0612118 C30.0431181,26.2029626 30.219229,26.2913654 30.4178291,26.3348629 C30.5653407,26.3671711 30.7152012,26.373957 30.8931938,26.3645628 C30.9541981,26.3613431 31.0056415,26.3572696 31.1006459,26.3488013 C31.1890692,26.3409196 31.216938,26.338587 31.256107,26.3360964 C31.3379172,26.3308943 31.4166171,26.3029162 31.4832453,26.2553478 C31.9865732,25.8960031 32.3567676,25.3528838 32.5425775,24.7358759 L32.5207543,24.7932967 C32.6415038,24.5326691 32.7169182,24.299895 32.8357857,23.8663319 C32.839953,23.851132 32.8417609,23.8445275 32.8512067,23.8100087 C32.925645,23.5379812 32.9613364,23.415474 33.0103254,23.2733103 L32.5962823,23.1317662 L32.9562188,23.3799184 C33.0262119,23.2792021 33.0711066,23.1708346 33.0991625,23.0515389 C33.1172165,22.9747718 33.1247622,22.9189712 33.1367421,22.8025158 C33.1381626,22.7887069 33.1387188,22.7833286 33.1394624,22.7762571 C33.1476046,22.698822 33.1540745,22.6615726 33.1629446,22.6359471 C33.1710796,22.6124454 33.1771818,22.5882938 33.1811844,22.5637564 C33.2192043,22.3306783 33.2665179,22.1151627 33.3583119,21.7373527 C33.3639315,21.714223 33.3673643,21.7001215 33.37903,21.6522239 C33.4735328,21.2642121 33.5148682,21.0839674 33.5577559,20.8561044 L33.127499,20.7757662 L33.5521852,20.8814969 C33.5697215,20.8116189 33.5770838,20.7558178 33.5849327,20.6649215 C33.585475,20.658621 33.585475,20.658621 33.585992,20.6525736 C33.590526,20.5995466 33.5928228,20.5800439 33.5959106,20.5658414 C33.5964498,20.5633616 33.5964929,20.5632155 33.5957847,20.56501 C33.5937227,20.5702344 33.5905409,20.5763762 33.5863503,20.5826382 C33.5957305,20.5686216 33.6042872,20.5540753 33.6119775,20.5390725 C33.6799863,20.4063957 33.7234682,20.2668085 33.7510641,20.1114315 C33.7700147,20.0047315 33.7782163,19.9234285 33.7915346,19.7476778 C33.7933325,19.723953 33.7940788,19.714167 33.7950596,19.7015587 C33.8080209,19.5349375 33.8207009,19.4453827 33.84515,19.3641959 C33.8460949,19.3610583 33.8470042,19.3579103 33.8478779,19.3547523 C33.9613069,18.944734 34.0274993,18.6142551 34.1561726,17.8801461 C34.1653427,17.8278284 34.1686969,17.8087024 34.1734438,17.7816852 C34.2759736,17.1981324 34.3398642,16.880291 34.4310946,16.5381433 C34.4371786,16.5153258 34.441392,16.4920539 34.4436931,16.468557 C34.4681563,16.218764 34.5296637,15.9575469 34.6237813,15.6963606 C34.6357014,15.6632811 34.6435621,15.6288873 34.6471924,15.5939282 C34.6713512,15.3612821 34.7095086,15.1716233 34.8106088,14.7408301 C34.8130056,14.7306174 34.8130056,14.7306174 34.8154062,14.7203862 C34.9248589,14.2538784 34.9701535,14.0237049 34.99697,13.7331853 L34.9805247,13.8179623 C35.0474994,13.5944512 35.0934183,13.3917643 35.1633772,13.0381394 C35.1670677,13.019485 35.169532,13.0069977 35.1767944,12.9701705 C35.2411491,12.6438333 35.2723239,12.4989841 35.3185618,12.327532 C35.3222454,12.3138728 35.3252596,12.3000432 35.3275937,12.2860922 C35.3729447,12.0150225 35.4276474,11.7933627 35.5618272,11.3045542 C35.5789922,11.2420232 35.5843742,11.2223987 35.5928329,11.1914508 C35.7063403,10.7761636 35.7677018,10.5224564 35.8150253,10.2425428 C35.8753721,9.8961865 35.9433537,9.61767282 36.1119287,8.98859032 C36.2871892,8.33455898 36.3592887,8.03917522 36.4259206,7.65671031 L35.9946138,7.5821662 L36.4211593,7.68019109 C36.4339976,7.62477028 36.4380346,7.58857546 36.4433273,7.51651695 C36.4447448,7.49721863 36.445356,7.48984436 36.4460625,7.4835103 C36.446287,7.48149734 36.4464464,7.48030195 36.4465109,7.47990051 C36.4463316,7.48101739 36.4459875,7.48279921 36.4454158,7.48526733 C36.4392003,7.51209834 36.4246112,7.54424833 36.3989311,7.57551557 C36.4097623,7.56232787 36.4198081,7.54851915 36.4290168,7.53416045 C36.5225558,7.38830896 36.5626405,7.26910126 36.6235672,7.02493938 C36.6245966,7.02081343 36.6245966,7.02081343 36.6256174,7.01672125 C36.6543896,6.90137596 36.66788,6.85422286 36.685607,6.81046076 C36.6994878,6.77619389 36.7101911,6.75958681 36.7179402,6.75259098 L36.4239533,6.42953851 L36.2033542,6.80613813 C36.2362594,6.82525972 36.2659992,6.8527701 36.2852873,6.88159205 L36.6495385,6.6397662 L36.268916,6.85513106 C36.4850282,7.23404027 36.6102363,7.49927339 36.6870711,7.76717128 C36.6905271,7.77922131 36.6945032,7.79111732 36.6989881,7.80282619 C36.9886222,8.5589768 37.1271423,8.97295471 37.225562,9.43434277 L37.6537563,9.34372927 L37.216678,9.36791058 C37.2213508,9.45170209 37.2412998,9.5282951 37.2728086,9.60270666 C37.291545,9.64695477 37.3067769,9.67572619 37.3379267,9.73065629 C37.3393732,9.73320688 37.3393732,9.73320688 37.3407566,9.73564736 C37.353949,9.75892784 37.3583202,9.76733499 37.3587373,9.76837571 C37.3564953,9.76278129 37.3540966,9.7552312 37.3519596,9.74559337 C37.3487989,9.73133858 37.3469891,9.71561067 37.3469891,9.69894158 C37.3469891,9.70348118 37.3470603,9.7080205 37.3472027,9.71255789 C37.3555157,9.97756084 37.3962376,10.1818679 37.5014243,10.5850147 C37.503876,10.5944098 37.503876,10.5944098 37.5063193,10.6037694 C37.5747029,10.8657376 37.6010933,10.9799335 37.6206341,11.1161984 C37.6233177,11.1349119 37.6272203,11.1534318 37.6323172,11.1716408 C37.7272896,11.5109346 37.7825115,11.7958298 37.8887833,12.4381644 C37.9078741,12.5535541 37.9153939,12.5988187 37.9257386,12.660266 C37.9806742,12.9865851 38.0248991,13.2215125 38.0782094,13.4560695 L38.0789205,13.4591467 C38.121588,13.6407587 38.15504,13.7745778 38.241215,14.1130089 C38.4138826,14.7911186 38.4860286,15.1057373 38.5456535,15.4858831 C38.5467013,15.492564 38.5479051,15.4992196 38.5492638,15.5058447 C38.6404083,15.9502742 38.7449315,16.3431133 38.9455561,17.0324188 C38.9561448,17.0687994 38.9611429,17.0859479 38.9848288,17.1671865 C39.0347996,17.3385782 39.0597636,17.424575 39.0884617,17.5246359 L39.0774314,17.4756583 C39.1301936,17.7950687 39.2109107,18.0260939 39.4140306,18.5142714 C39.4177722,18.5232639 39.4177722,18.5232639 39.4215034,18.5322326 C39.5469005,18.8336686 39.6012983,18.9773192 39.6477549,19.1448078 C39.651773,19.159294 39.6565404,19.1735636 39.6620379,19.1875595 C39.8818231,19.7470939 40.1687574,20.2576663 40.5198867,20.6987086 C40.5389277,20.7226254 40.5604376,20.7444846 40.5840625,20.7639265 C40.663699,20.8294626 40.7317634,20.8982554 40.8764735,21.0550302 C40.8845434,21.0637736 40.8845434,21.0637736 40.8926752,21.0725831 C40.9461008,21.1304543 40.9770353,21.1636077 41.0119351,21.2000301 C41.0382763,21.2275206 41.0681127,21.2514632 41.1006859,21.2712492 C41.1196721,21.2827821 41.1398819,21.2952726 41.1651922,21.31108 C41.178408,21.3193339 41.2259208,21.3491238 41.2347457,21.354643 C41.4376071,21.4815175 41.5616056,21.5495594 41.7170873,21.6069947 C41.9447778,21.6911042 42.1733165,21.7159264 42.4088871,21.6662839 L42.3182756,21.2397169 L42.3957438,21.6688451 C43.1099642,21.5409348 43.7036464,21.0609406 44.1865175,20.3541176 L44.1542839,20.3956786 C44.546599,19.9483532 44.8030532,19.5553793 45.315712,18.6800396 C45.3297205,18.6561201 45.3368352,18.6439721 45.34371,18.6322353 C45.5038266,18.358885 45.5898853,18.2142231 45.688969,18.0541992 C45.6945239,18.0452277 45.6997504,18.0360586 45.7046381,18.0267099 C45.8274985,17.7917163 45.9371724,17.6048691 46.1903364,17.1894459 C46.1929795,17.1851087 46.1929795,17.1851087 46.1956236,17.1807699 C46.5509334,16.5977291 46.7062347,16.3245963 46.8719356,15.9614425 L46.4734089,15.7810462 L46.8136728,16.0553542 C46.9545626,15.8819766 47.0332555,15.7380049 47.1810419,15.4230577 C47.1827743,15.4193657 47.1827743,15.4193657 47.1845019,15.4156843 C47.2846289,15.2023169 47.3328281,15.1106483 47.3988855,15.0172463 C47.4131773,14.9970385 47.4257179,14.9756567 47.4363718,14.9533322 C47.5065138,14.8063539 47.5719856,14.6849551 47.7184469,14.4241412 C47.7277594,14.4075584 47.7323625,14.3993613 47.7371031,14.3909168 C47.9319535,14.043827 48.0263266,13.8631471 48.1214688,13.6371335 L48.0764067,13.7185478 C48.3423222,13.3401151 48.5754066,12.9260308 48.7724301,12.4863789 L48.7343932,12.5542561 C49.0589222,12.0800927 49.3653641,11.571301 49.6609966,11.0210384 L49.2750313,10.8153231 L49.6368966,11.0606766 C49.6766437,11.0025204 49.8321943,10.7741114 49.8703146,10.7183272 C50.0632704,10.4359612 50.2000979,10.2411718 50.3402228,10.052313 C50.3552218,10.0320975 50.3684376,10.0106279 50.3797224,9.98814419 C50.4618776,9.82445955 50.5508131,9.68993608 50.7573041,9.404028 C50.7630605,9.39605806 50.7630605,9.39605806 50.7688347,9.38806395 C50.9434013,9.14637845 51.0232348,9.03040316 51.1143078,8.87730282 L51.1124577,8.88038386 C51.2007898,8.734641 51.2888939,8.61026389 51.475348,8.36094298 C51.4860158,8.34667995 51.4860158,8.34667995 51.4967295,8.33235734 C51.6924168,8.07073907 51.7842342,7.94229324 51.8879535,7.77634807 C51.8951455,7.76484119 51.9017949,7.75300653 51.9078801,7.74088265 C51.926133,7.70451581 51.9566515,7.66669181 52.0431414,7.57437433 C52.0467586,7.57051374 52.0467586,7.57051374 52.0504294,7.56659553 C52.1598165,7.44982586 52.2135384,7.38643339 52.2732381,7.29127766 L51.902007,7.06022158 L52.2561737,7.3164774 C52.3779373,7.149527 52.5025104,6.98723839 52.6980027,6.73839063 C52.7152519,6.71643361 52.7330735,6.69377055 52.7560181,6.6646097 C52.7617079,6.65737838 52.8023912,6.60568055 52.8143263,6.59050999 C53.1979379,6.10290719 53.3903344,5.84692118 53.5960433,5.5358386 C53.8706497,5.12056603 54.0785804,4.72605765 54.227484,4.3161093 C54.2341749,4.29768859 54.2396118,4.27883969 54.2437577,4.25969074 C54.2534694,4.21483522 54.2693744,4.16295573 54.2941838,4.09442312 C54.3051709,4.06407263 54.3141843,4.04020209 54.3372884,3.97979644 C54.4196888,3.76436051 54.4540383,3.66003283 54.4793955,3.51509828 C54.5176823,3.2962616 54.5020937,3.08595597 54.4177288,2.87966694 C54.3616842,2.74262675 54.2396821,2.64325153 54.093708,2.61573997 C53.9234398,2.58364973 53.7586408,2.60030205 53.5927463,2.65427629 C53.4857889,2.68907516 53.4090052,2.72509371 53.2585874,2.803448 C53.2199281,2.82358608 53.2084904,2.82951321 53.1907806,2.8385135 C53.1532491,2.8575874 53.1244163,2.8712936 53.0990829,2.88200018 C53.0609933,2.89809786 53.0253875,2.91949299 52.9933284,2.94554687 C52.9285866,2.99816144 52.8666541,3.04411548 52.7416472,3.13377189 C52.7385656,3.13598211 52.7175793,3.15103001 52.7114121,3.15545406 C52.4055426,3.37486785 52.2559987,3.49749368 52.0983582,3.68397888 L52.4332237,3.96480005 L52.1434284,3.63801196 C51.8848445,3.86550222 51.6465926,4.12669442 51.4053615,4.43771614 C51.2232895,4.67246349 51.0723918,4.88813069 50.8052293,5.28583984 C50.7917029,5.30597583 50.7454087,5.37493028 50.7432716,5.37811277 C50.7210378,5.41122229 50.7037587,5.43693087 50.687013,5.46180733 L51.0506049,5.70461543 L50.7271001,5.41087979 C50.533087,5.62285799 50.4093282,5.81288623 50.1799395,6.21317745 C50.17367,6.22411897 50.17367,6.22411897 50.1674264,6.23501637 C50.1446384,6.27478805 50.1319672,6.29685702 50.118051,6.32096684 L50.4975574,6.53827697 L50.1787604,6.23947855 C49.9976818,6.43114194 49.8886627,6.56735712 49.7968599,6.74194967 L50.1846489,6.94423389 L49.8076367,6.72265869 C49.7310705,6.85190191 49.6607934,6.95960607 49.5081284,7.18598126 C49.4973915,7.20190145 49.4918229,7.21015845 49.4866165,7.21788036 C49.2259354,7.60450991 49.1029743,7.80384357 48.9805296,8.06406426 L49.031799,7.98086004 C48.7837827,8.2974208 48.6212436,8.56541294 48.2859902,9.17118418 C48.2844216,9.17401839 48.2844216,9.17401839 48.2828536,9.17685167 C48.0653741,9.56981506 47.9647669,9.74364217 47.8318624,9.94572404 C47.8283291,9.95109643 47.8249154,9.95654592 47.8216238,9.96206852 C47.685035,10.1912368 47.5639761,10.4379144 47.4318285,10.7450847 L47.8341969,10.9168123 L47.4738955,10.669186 C47.2704951,10.9627869 47.1287468,11.2240104 46.8714045,11.7464569 C46.8653501,11.7587485 46.8594373,11.770757 46.8475123,11.7949777 C46.7106618,12.0729173 46.6447051,12.203089 46.5622901,12.353274 C46.5581911,12.3607436 46.5543126,12.3683311 46.5506596,12.3760269 C46.4040183,12.6849564 46.2759192,12.9421112 46.0042732,13.4784449 C45.9887036,13.5091846 45.9887036,13.5091846 45.9731256,13.5399418 C45.9612605,13.5633691 45.9514059,13.5828301 45.9419576,13.6014936 C45.5764754,14.3234394 45.3838964,14.7184635 45.1847028,15.1710345 C45.1720483,15.1997859 45.1625482,15.2298145 45.156368,15.260598 C45.1486962,15.2988112 45.1249776,15.3421079 45.0419259,15.4622505 C45.0414638,15.4629189 45.0414638,15.4629189 45.0410007,15.4635888 C44.9211708,15.6369337 44.8685751,15.7258342 44.8210337,15.8679153 L45.236329,16.0057723 L44.844778,15.8108097 C44.7762938,15.9472566 44.7170685,16.0624874 44.5945495,16.2988737 C44.580398,16.3261766 44.5733747,16.3397274 44.5662288,16.3535173 C44.2916023,16.8834822 44.1565164,17.1558103 44.0127379,17.484399 L44.4140346,17.6585969 L44.0624552,17.3988307 C43.9880157,17.4987801 43.9297266,17.5900086 43.8361073,17.7464286 C43.8302102,17.7562814 43.824097,17.7665102 43.8123052,17.7862446 C43.7184646,17.9432487 43.672107,18.0156368 43.6154392,18.0892698 L43.9628643,18.3545231 L43.62655,18.0754248 C43.5351428,18.1846957 43.4975145,18.2686622 43.4393659,18.438582 C43.4232161,18.4857742 43.4165775,18.5038248 43.4096268,18.519335 C43.4071958,18.5247597 43.4054028,18.5282598 43.4043131,18.5300893 C43.4047609,18.5293375 43.4060665,18.5274775 43.4082417,18.5248771 L43.4057311,18.527906 C43.3150333,18.6383368 43.2540962,18.7319541 43.1399917,18.9229852 C43.1318175,18.9366729 43.1276002,18.9437344 43.1237582,18.9501619 C43.0179755,19.127137 42.9626176,19.2085064 42.8939571,19.2814654 C42.8148843,19.3660682 42.7637401,19.4329102 42.6584339,19.5801777 C42.5302425,19.7594495 42.4755833,19.822403 42.4078996,19.8660316 C42.4029552,19.8692188 42.3980758,19.872505 42.3932645,19.8758883 C42.3337719,19.9177232 42.3014854,19.937001 42.2862627,19.9423532 C42.2885157,19.9415611 42.2926207,19.9404635 42.2988555,19.9393869 C42.3101172,19.9374422 42.3233259,19.9365642 42.3382846,19.9373508 C42.378568,19.939469 42.41989,19.9533656 42.452908,19.9763902 L42.2018445,20.3335631 L42.4860889,20.0019736 C42.2347346,19.78822 42.039349,19.5246108 41.9231138,19.2409191 C41.9172459,19.2265975 41.9106169,19.212597 41.9032551,19.198977 C41.648559,18.7277712 41.4358338,18.229237 41.1565477,17.4843185 C41.1541262,17.4778596 41.1515511,17.4714589 41.1488248,17.4651216 C41.1025062,17.3574564 41.0710717,17.2565315 41.0120008,17.0382867 C41.0101131,17.0313111 41.0101131,17.0313111 41.0082174,17.0243046 C40.919775,16.6974178 40.870584,16.5466154 40.7741602,16.354502 L40.3826092,16.5494646 L40.8010098,16.4212605 C40.7047211,16.1095141 40.6265382,15.8275798 40.4865594,15.2999472 C40.4810652,15.2792374 40.4776762,15.2664574 40.4663894,15.2238895 C40.3248479,14.6900682 40.2586162,14.4480689 40.1690331,14.1486768 C40.159583,14.1170938 40.1465682,14.0866798 40.1302382,14.0580174 C40.1023053,14.0089897 40.0826812,13.9452184 40.0517833,13.8034501 C40.0502611,13.7964661 40.0494205,13.7925941 40.0461171,13.7773619 C40.0171077,13.6435967 40.0014779,13.579746 39.9739863,13.4965807 C39.9327524,13.3718436 39.8789541,13.2612801 39.8038576,13.1595378 L39.4511608,13.417797 L39.8873367,13.3808297 C39.8574813,13.0313655 39.7753633,12.687022 39.6399199,12.2912343 L39.2255756,12.4319016 L39.6612163,12.3891294 C39.6355818,12.1301124 39.5895343,11.93808 39.4713998,11.5297563 C39.466351,11.512306 39.4640697,11.5044187 39.4613371,11.4949621 C39.3758371,11.199072 39.3391664,11.0489935 39.3177388,10.8829687 C39.3107431,10.8287647 39.2935787,10.7763537 39.2671401,10.7284666 C39.2316676,10.6642167 39.2151388,10.5897828 39.1902821,10.3866527 C39.1879663,10.3677278 39.1870558,10.3603116 39.1857899,10.3501104 C39.1573762,10.1211505 39.1287806,9.98351278 39.0603427,9.82443239 L38.6579742,9.99616004 L39.0616772,9.82756815 C39.0350722,9.76436721 39.0156934,9.70451469 38.9751888,9.56574113 C38.968349,9.54230701 38.9667352,9.53678367 38.9635376,9.52588644 C38.9102333,9.34422381 38.8718239,9.23373378 38.8118947,9.11035159 L38.4178351,9.30023388 L38.8299775,9.15328939 C38.7724528,8.99322891 38.7311009,8.85890252 38.6416532,8.5515849 C38.6408795,8.54892654 38.6408795,8.54892654 38.6401054,8.54626698 C38.4621596,7.93490186 38.3652698,7.65810637 38.1845753,7.32443603 L38.2174403,7.40239344 C38.0550036,6.88016229 37.7869087,6.36536747 37.4248977,5.84159167 L37.0643241,6.08882466 L37.4521131,5.88654044 C37.2183653,5.44199387 36.8243582,5.1140088 36.3503926,5.03531533 C36.0150691,4.97804547 35.6893947,5.05915403 35.3426441,5.23744058 C35.3135175,5.25241642 35.2861718,5.27060329 35.2611213,5.29165919 C34.7885416,5.68887997 34.4784823,6.2085228 34.1757003,6.97264957 L34.5828872,7.13271389 L34.178798,6.96504246 C34.1376418,7.06344111 34.1101088,7.14667128 34.0640648,7.30054042 C34.0614804,7.30917988 34.0614804,7.30917988 34.058924,7.3177306 C33.9959595,7.52833276 33.9646481,7.61141689 33.9151996,7.68882579 C33.884395,7.73704874 33.8634102,7.79083376 33.8534393,7.84712061 C33.8203693,8.0338036 33.7765833,8.1999534 33.6789513,8.52968912 C33.6762893,8.5386796 33.6740884,8.54610869 33.6692057,8.56258761 C33.5041346,9.11969799 33.4425789,9.378808 33.4184779,9.72694219 L33.4257363,9.67245667 C33.349405,10.0574124 33.2767771,10.373399 33.1128204,11.0542907 C33.0677,11.2416702 33.0519013,11.3074269 33.0290523,11.4032666 C33.0190706,11.4451349 33.0153668,11.4882442 33.0180614,11.5311929 C33.0196404,11.5563604 33.0108749,11.5936941 32.9722232,11.7059951 C32.9686094,11.7164936 32.9668967,11.7214743 32.9648602,11.7274175 C32.9052586,11.9013527 32.8789473,12.0099481 32.8789473,12.1564308 L33.3166994,12.1564308 L32.8832583,12.0953906 L32.8832598,12.0953803 C32.8690631,12.1953891 32.8582569,12.2728919 32.8329306,12.4556034 C32.7107078,13.3373545 32.6479799,13.7287925 32.5402809,14.2067159 L32.9674062,14.3022031 L32.5415543,14.2012308 C32.5095989,14.3349324 32.4970303,14.4362524 32.4782132,14.6534909 C32.4748042,14.6928472 32.4733703,14.7091413 32.4714578,14.7298609 C32.4558422,14.8990334 32.438255,14.996525 32.4055075,15.0821598 L32.8145905,15.2373539 L32.5050263,14.929075 C32.3922235,15.0414482 32.3288345,15.1774276 32.3055227,15.3270983 C32.2917025,15.4158297 32.2921049,15.4746986 32.2991801,15.5988523 C32.3000935,15.6148808 32.3004972,15.6222008 32.3009128,15.6305431 C32.3024664,15.6617247 32.3025648,15.6799589 32.3016474,15.6911799 C32.3014943,15.6930518 32.3014724,15.6932051 32.3017925,15.6917289 C32.302812,15.6870274 32.3045915,15.6811928 32.3073045,15.6745592 C32.2962363,15.701623 32.287928,15.7297264 32.2825047,15.7584457 C32.229305,16.0401669 32.1982517,16.2642729 32.1376484,16.7615254 C32.1295593,16.8278967 32.1261715,16.8556311 32.1217564,16.8915209 C32.0624144,17.3739081 32.0185838,17.6582457 31.9511455,17.9532604 L32.377974,18.0500554 L31.9537452,17.9425182 C31.9028138,18.1418439 31.8811276,18.2963555 31.8467696,18.6317481 C31.8373851,18.7233568 31.8333003,18.762083 31.8277046,18.8108111 C31.8109945,18.9563241 31.7935125,19.0668762 31.7696336,19.1693475 L32.1960505,19.2679262 L31.7751359,19.1481642 C31.746748,19.2471434 31.7421404,19.3195205 31.7436114,19.4450403 C31.7436635,19.4494191 31.7436635,19.4494191 31.7437153,19.4536383 C31.7441111,19.485885 31.7441094,19.4985785 31.7436609,19.5103193 C31.743486,19.5148978 31.7432663,19.5181519 31.7430603,19.5201279 C31.7430856,19.5198847 31.7432874,19.5185309 31.7437929,19.516036 C31.7507494,19.4817003 31.773174,19.4391609 31.8105955,19.4060239 C31.7262234,19.4807358 31.6740931,19.5850258 31.6650918,19.6971132 C31.636523,20.052863 31.5885987,20.340478 31.4607667,20.9931227 C31.3266289,21.6779611 31.2751016,21.9871994 31.2430292,22.3865778 L31.6793877,22.4213416 L31.7855754,21.9983541 C31.7311298,21.9847946 31.684075,21.9806092 31.6232677,21.9788392 C31.6015778,21.9782078 31.5852344,21.9780824 31.5556797,21.9780824 C31.2723651,21.9780824 31.0636784,22.2420697 31.1301446,22.5163812 C31.1308646,22.5193528 31.1312234,22.524802 31.130377,22.5361977 C31.1289593,22.5552856 31.1244832,22.5811043 31.1151653,22.6219469 C31.1122575,22.6346925 31.1099557,22.6444198 31.1035457,22.6712188 C31.0665675,22.8258184 31.0524351,22.9059527 31.0524351,23.0230277 L31.4901872,23.0230277 L31.0639808,22.9235503 C30.9508277,23.4044982 30.8236525,23.8342203 30.6730662,24.2320804 L31.0826785,24.3858831 L31.1546566,23.9558076 C31.1112899,23.9486073 31.0675233,23.9453373 31.0163076,23.9437429 C30.9865338,23.9428161 30.9633961,23.942624 30.9225858,23.942624 L30.9225858,24.3786339 L31.3222688,24.2007936 C31.266902,24.0773493 31.2284681,23.9697004 31.1458833,23.7177475 C31.0538215,23.4368819 31.0085706,23.3101391 30.9365909,23.1496551 L30.5369079,23.3274954 L30.9384886,23.1539481 C30.8882395,23.0385975 30.8607211,22.9296995 30.8093218,22.6662627 C30.8070134,22.6544313 30.8070134,22.6544313 30.8046831,22.6425007 C30.7404696,22.3139326 30.6948044,22.1423764 30.5980979,21.9381394 L30.2021686,22.1241231 L30.6147794,21.9784885 C30.5453545,21.7833571 30.5039382,21.6118882 30.4233781,21.2183947 C30.4155138,21.1799817 30.4130051,21.1677392 30.4090741,21.1486198 C30.3180662,20.7059791 30.2537733,20.4588289 30.1421847,20.1843934 L30.164553,20.2570471 C30.1293497,20.0927757 30.0927543,19.9406415 30.0299743,19.6913408 C30.0250706,19.6718682 30.021828,19.6590097 30.0120527,19.6202611 C29.8538719,18.9932453 29.7952475,18.7135358 29.7650427,18.3675028 C29.7631383,18.3456854 29.7595862,18.3240419 29.7544168,18.3027561 C29.6638805,17.9299648 29.5925622,17.5962956 29.4642175,16.9633456 C29.4597763,16.9414429 29.4567173,16.9263508 29.4480206,16.8834376 C29.3180185,16.2419579 29.257207,15.9533203 29.1730345,15.5947809 L28.7467804,15.6940554 L29.1845325,15.6940554 C29.1845325,15.4978857 29.1657662,15.3516156 29.1126892,15.0446479 C29.1026977,14.9868623 29.0987755,14.9639659 29.0937804,14.933902 C29.0658786,14.7659707 29.0535476,14.6542196 29.0535476,14.548677 C29.0535476,14.5260558 29.0517801,14.5034689 29.0482611,14.4811209 C29.0227054,14.3188234 29.0011306,14.1938568 28.948965,13.9000458 C28.8074328,13.1028977 28.7593663,12.7461892 28.7551728,12.3117224 C28.7547341,12.2662748 28.7471638,12.221175 28.7327362,12.1780569 C28.7068984,12.1008387 28.6911396,12.0283051 28.6608212,11.8583616 C28.6459238,11.7748572 28.6396981,11.7409677 28.6302639,11.6939764 L28.2010098,11.7794708 L28.6364012,11.7342504 C28.5922735,11.3127543 28.5352831,10.8959376 28.4443492,10.3005844 C28.4294237,10.2028657 28.418153,10.1297805 28.3898804,9.94698994 C28.2553055,9.07692436 28.1994875,8.68330434 28.1488746,8.19689861 C28.1482714,8.1911018 28.1475516,8.18531761 28.1467156,8.17954955 L28.1471702,8.18277074 C28.1092526,7.92107132 28.0814907,7.72579894 28.0132372,7.24276318 C27.7934578,5.68736504 27.685814,4.97992741 27.5254586,4.11072776 L27.0949148,4.1895262 L27.5318147,4.21671907 C27.5378886,4.11990595 27.5200318,4.03018347 27.4847561,3.94648256 C27.472704,3.91788569 27.459359,3.89163243 27.4442253,3.8652748 C27.4349111,3.84905264 27.4275054,3.83703355 27.4147471,3.81685997 C27.4139884,3.8156604 27.4139884,3.8156604 27.4132595,3.81450825 C27.4057454,3.80262994 27.4031599,3.7984266 27.4019945,3.79636524 C27.4042397,3.8003366 27.407441,3.80691951 27.4112654,3.81692256 C27.4271125,3.85837235 27.4332601,3.90928297 27.4241309,3.96081794 C27.4296423,3.92970575 27.4317423,3.89808908 27.4303941,3.86652487 C27.4139164,3.48077379 27.318224,3.08887004 27.1547932,2.7118398 L26.7528985,2.88466467 L27.1709862,2.75545204 C27.04444,2.3492446 26.893566,1.93999554 26.7066677,1.48667154 C26.6994914,1.46926539 26.6911914,1.45234019 26.6818196,1.43600212 C26.5104812,1.13730174 26.258038,0.879143279 25.9480746,0.663930855 C25.9213738,0.645392024 25.8926803,0.629877065 25.8625264,0.617673666 C25.5547917,0.493132543 25.214624,0.500394096 24.8493064,0.591375717 C24.7952732,0.604832565 24.7443147,0.628436137 24.6991653,0.660919906 C24.5701908,0.753713441 24.4529194,0.830529772 24.3359043,0.898017389 C24.3183122,0.908163514 24.301451,0.919517865 24.2854432,0.931998003 C24.0841975,1.08889493 23.9190967,1.27969686 23.7708751,1.51197814 C23.6642642,1.67905033 23.5882828,1.8249993 23.4495211,2.1134465 C23.4426472,2.12773803 23.4426472,2.12773803 23.43581,2.1419562 C23.3217433,2.37914704 23.2672675,2.48597845 23.1970291,2.60313908 C23.1914388,2.61246398 23.1862002,2.62199367 23.1813244,2.63170821 C23.0177337,2.9576437 22.918668,3.2440287 22.757184,3.79799446 C22.7529869,3.81239221 22.7508378,3.81977171 22.7417031,3.85114485 C22.6596168,4.13306951 22.6209592,4.2601581 22.569208,4.41100156 C22.5653248,4.42232048 22.5619108,4.43379378 22.5589747,4.44539233 C22.2563957,5.64070553 22.1237885,6.28453011 22.0596989,7.03790834 L22.0644484,7.00094205 L22.064652,6.9997703 C22.0442302,7.11823479 22.0278726,7.20913991 21.9880478,7.42751851 C21.8272868,8.3090486 21.7701922,8.71417707 21.7598671,9.23360936 L21.7697437,9.14975025 C21.656663,9.66862317 21.6037522,10.0837284 21.5126747,11.0137789 C21.5119355,11.0213271 21.5119355,11.0213271 21.5111966,11.0288731 C21.4381412,11.774829 21.3974928,12.1148583 21.3230368,12.5201579 C21.3193238,12.5403696 21.3170499,12.5608174 21.316232,12.5813485 C21.3038485,12.892225 21.2808895,13.1447211 21.2192453,13.7152028 C21.2081634,13.817759 21.2033455,13.8625591 21.1973274,13.9193432 C21.1322743,14.5331605 21.1055743,14.9233982 21.1121886,15.3385126 L21.5498857,15.3315939 L21.1305892,15.2063272 C21.0847658,15.3584901 21.0631398,15.483939 21.0328185,15.7227091 C21.0316623,15.7318194 21.0316623,15.7318194 21.0305166,15.7408588 C21.0057325,15.9363858 20.992358,16.0183505 20.9677049,16.107657 C20.9563438,16.1488126 20.9511117,16.1914068 20.9521758,16.2340766 C20.9646726,16.7351579 20.9300448,17.1406992 20.8173969,18.0585698 C20.8115594,18.1061346 20.8090802,18.1263501 20.8058986,18.152351 C20.7197187,18.8566434 20.6838732,19.2403336 20.675594,19.6802092 L20.6805692,19.6223307 C20.6370071,19.9054392 20.6084878,20.1323587 20.5498651,20.6364604 C20.5423843,20.7007884 20.5393426,20.7269136 20.5353151,20.761382 C20.4354859,21.6157355 20.3634464,22.0711156 20.2318457,22.5627393 C20.2275961,22.5786145 20.2242508,22.5947163 20.2218258,22.6109676 C20.1196013,23.2960411 20.0399804,23.7293507 19.9255477,24.1673393 L19.9398135,24.1227214 C19.8992073,24.2295134 19.869921,24.3139627 19.8067031,24.5021943 C19.6388409,25.0020055 19.5506855,25.20321 19.3893956,25.4031621 C19.3812688,25.4132369 19.3735958,25.4236666 19.3663992,25.4344203 C19.3568744,25.4486532 19.3160542,25.51259 19.3064336,25.5267569 C19.2962355,25.5417742 19.2889738,25.5513365 19.2858112,25.5548228 C19.2877999,25.5526305 19.2913114,25.5492056 19.297041,25.5444155 C19.3086434,25.5347155 19.3231066,25.5248118 19.3415025,25.5152135 C19.406987,25.4810459 19.4908313,25.4675366 19.5775085,25.4888528 C19.6515867,25.5070706 19.7029399,25.5430565 19.7334249,25.5798188 L19.3959111,25.8574769 L19.7352952,25.5820899 C19.4628031,25.2489412 19.2178944,24.8539322 18.9797215,24.3794005 L18.5881706,24.5743631 L19.0034659,24.4365061 C18.8949696,24.1122566 18.817353,23.9280021 18.685328,23.7268504 L18.3189238,23.9654277 L18.7337344,23.8261305 C18.5135753,23.1757312 18.2849466,22.5544069 18.0413437,21.9477187 L17.6348913,22.1096246 L18.0524474,21.9787176 C18.0115845,21.8494123 17.980722,21.7412101 17.9151104,21.5024633 C17.900529,21.4494043 17.8953242,21.4304879 17.8877658,21.4031304 C17.8140022,21.1361435 17.7623464,20.9639534 17.698543,20.7833079 L17.2855982,20.928 L17.7124683,20.8313869 C17.6717101,20.6527339 17.6275483,20.5069882 17.5347174,20.2265951 C17.530837,20.2148764 17.530837,20.2148764 17.5269694,20.2031996 C17.4005342,19.8214693 17.3536978,19.6538193 17.3266123,19.4499522 C17.3237322,19.4282741 17.3192188,19.4068426 17.3131104,19.385839 C17.0523903,18.4893611 16.8784514,17.7764518 16.7642235,17.0873725 L16.3323189,17.1584 L16.7675807,17.1119585 C16.7395514,16.8513477 16.6926384,16.6298679 16.611844,16.4125536 C16.6093012,16.4057141 16.6065865,16.3989393 16.6037024,16.3922355 C16.5762585,16.3284435 16.5636632,16.2594042 16.5446401,16.0777186 C16.5439647,16.0712677 16.5439647,16.0712677 16.5432808,16.0647455 C16.5229802,15.8713012 16.5067553,15.7682187 16.4671693,15.6391577 L16.0485182,15.7665477 L16.4844258,15.726565 C16.4605526,15.4683569 16.4186356,15.2312062 16.3383779,14.8564312 C16.3314318,14.8239953 16.3263274,14.8003162 16.3131181,14.7391627 C16.2401362,14.401287 16.2101299,14.2497325 16.1834029,14.0657762 C16.1812278,14.0508056 16.178272,14.0359578 16.1745475,14.0212931 C16.1128689,13.7784443 16.0692617,13.528565 16.0183681,13.1560318 C16.0104923,13.0983818 16.0048128,13.0558585 15.9902085,12.9457444 C15.9430623,12.5902677 15.9192949,12.4262403 15.8825853,12.2238875 C15.8818407,12.219783 15.8810369,12.2156893 15.8801744,12.2116077 C15.880692,12.2140569 15.8809746,12.2157582 15.8810977,12.2167264 C15.8810173,12.2160943 15.8808788,12.2146185 15.8807254,12.2122943 C15.8802266,12.2047401 15.8799531,12.1940212 15.8798832,12.1768556 C15.8798629,12.1718469 15.8798585,12.1676035 15.8798585,12.1577733 C15.8798585,12.0525819 15.8772416,12.001746 15.8598583,11.9233378 C15.8290263,11.7842689 15.7585008,11.6598015 15.6405577,11.5643376 L15.3644857,11.9027077 L15.7966796,11.833448 C15.7690839,11.6626134 15.7484037,11.501184 15.7161378,11.2193967 C15.714137,11.201923 15.7126334,11.1887594 15.7088952,11.1560056 C15.6378248,10.5332992 15.5958402,10.253076 15.5044771,9.90142655 L15.5145417,9.95262122 C15.4813627,9.70656246 15.4522965,9.50642541 15.3879621,9.07404848 C15.3439778,8.77843962 15.3258332,8.65530522 15.3030401,8.49576337 C15.2217758,7.92694898 15.1703859,7.49261117 15.1388227,7.07127472 C15.1379741,7.05994708 15.1366814,7.0486568 15.1349476,7.03742971 C15.1083633,6.86528947 15.0871815,6.73317468 15.0359226,6.41718211 C14.9045683,5.6074296 14.8503637,5.24047998 14.8029151,4.78928688 C14.8021214,4.78173942 14.80113,4.77421389 14.7999419,4.76671797 C14.7989139,4.76023218 14.7980967,4.74554807 14.7971207,4.70360649 C14.7969837,4.69771476 14.7969837,4.69771476 14.7968345,4.69149717 C14.794326,4.58856153 14.7887391,4.52519034 14.7669869,4.44280132 C14.7311398,4.30702571 14.6587391,4.18635403 14.5439784,4.0922051 L14.2656676,4.42875082 L14.7032957,4.43912727 C14.7068303,4.29124225 14.692301,4.16429102 14.658076,3.96995165 C14.6555344,3.95551979 14.6537069,3.94526402 14.6488704,3.91821865 C14.6138796,3.72254957 14.6041041,3.64097328 14.6083469,3.55010034 C14.6088214,3.53993801 14.6089386,3.52976225 14.6086984,3.51959176 C14.6010269,3.19479336 14.5521678,2.93201187 14.4304504,2.44259123 C14.4272833,2.42985657 14.4251157,2.42115271 14.4189112,2.39624885 C14.3286893,2.03411358 14.2941529,1.87414855 14.2710118,1.68050376 C14.2664238,1.64211074 14.2567289,1.60449613 14.2421823,1.56864945 C14.2431075,1.57092932 14.2061118,1.47937708 14.1949036,1.45198996 C14.1751856,1.40380879 14.157928,1.36281731 14.1403692,1.32285662 C14.0512193,1.11996718 13.9612496,0.96092218 13.8434358,0.82058061 C13.6817316,0.627956104 13.4809087,0.492724159 13.2366525,0.43189264 L13.1304648,0.854880055 L13.3199203,0.461819809 C13.0402125,0.328071296 12.7395898,0.322497887 12.4456015,0.420624033 C12.2230143,0.494918231 12.0122119,0.625354639 11.8173596,0.793924137 L11.8173596,0.793924137 Z" id="Shape"></path>
                        </g>
                    </g>
                    <path d="M4.79118433,37.4930748 L4.02671416,37.4930748 L3.86776492,38.531856 L4.73820125,38.531856 L4.53383793,39.6786704 L3.69367765,39.6786704 L3.49688335,40.9418283 L2.36153161,40.9418283 L2.55832591,39.6786704 L1.86954586,39.6786704 L1.67275156,40.9418283 L0.52983081,40.9418283 L0.726625111,39.6786704 L0,39.6786704 L0.204363313,38.531856 L0.908281389,38.531856 L1.06723063,37.4930748 L0.257346394,37.4930748 L0.461709706,36.3462604 L1.2413179,36.3462604 L1.44568121,35 L2.58860196,35 L2.38423865,36.3462604 L3.06544969,36.3462604 L3.269813,35 L4.42030276,35 L4.20080142,36.3462604 L4.99554764,36.3462604 L4.79118433,37.4930748 Z M2.89893143,37.4930748 L2.21015138,37.4930748 L2.04363313,38.531856 L2.73241318,38.531856 C2.79801161,38.0886404 2.85351714,37.7423835 2.89893143,37.4930748 L2.89893143,37.4930748 Z M12.6024043,37.2853186 L11.1718611,40.4598338 L10.467943,40.4598338 L9.04496883,37.2853186 L9.04496883,40.9418283 L7.86420303,40.9418283 L7.86420303,35.132964 L9.46126447,35.132964 L10.8236866,38.3240997 L12.1936776,35.132964 L13.7831701,35.132964 L13.7831701,40.9418283 L12.6024043,40.9418283 L12.6024043,37.2853186 Z M20.5725735,36.6786704 C20.2698115,36.3130176 19.8976721,36.1301939 19.4561443,36.1301939 C19.0146164,36.1301939 18.642477,36.3130176 18.339715,36.6786704 C18.0369531,37.0443232 17.8855744,37.486147 17.8855744,38.0041551 C17.8855744,38.5221633 18.0369531,38.9626021 18.339715,39.3254848 C18.642477,39.6883675 19.0146164,39.8698061 19.4561443,39.8698061 C19.8976721,39.8698061 20.2698115,39.6883675 20.5725735,39.3254848 C20.8753354,38.9626021 21.0267142,38.5221633 21.0267142,38.0041551 C21.0267142,37.486147 20.8753354,37.0443232 20.5725735,36.6786704 L20.5725735,36.6786704 Z M19.4523598,41 C18.6702246,41 18.0117272,40.7132993 17.4768477,40.1398892 C16.9419682,39.5664791 16.6745325,38.8531899 16.6745325,38 C16.6745325,37.1468101 16.9419682,36.4335209 17.4768477,35.8601108 C18.0117272,35.2867007 18.6702246,35 19.4523598,35 C20.2344949,35 20.8929923,35.2867007 21.4278718,35.8601108 C21.9627513,36.4335209 22.230187,37.1468101 22.230187,38 C22.230187,38.8531899 21.9627513,39.5664791 21.4278718,40.1398892 C20.8929923,40.7132993 20.2344949,41 19.4523598,41 L19.4523598,41 Z M27.437667,40.9418283 L25.1215494,40.9418283 L25.1215494,35.132964 L27.1803206,35.132964 C27.5385889,35.132964 27.8476538,35.1800549 28.1075245,35.2742382 C28.3673952,35.3684215 28.562926,35.4958441 28.6941229,35.6565097 C28.9312864,35.9556802 29.0498664,36.2936269 29.0498664,36.6703601 C29.0498664,37.124656 28.9161486,37.4626028 28.6487088,37.6842105 C28.5578802,37.7617732 28.4948058,37.8102492 28.4594835,37.8296399 C28.4241613,37.8490306 28.3610868,37.8808862 28.2702582,37.9252078 C28.5982504,38.0027705 28.8593787,38.1648187 29.0536509,38.4113573 C29.2479232,38.657896 29.3450579,38.9639871 29.3450579,39.3296399 C29.3450579,39.734074 29.2189089,40.0914112 28.9666073,40.401662 C28.6739374,40.7617747 28.1642957,40.9418283 27.437667,40.9418283 L27.437667,40.9418283 Z M26.3023152,37.4847645 L26.8624221,37.4847645 C27.1904142,37.4847645 27.4338817,37.4459838 27.5928317,37.3684211 C27.7517817,37.2908583 27.8312556,37.12327 27.8312556,36.865651 C27.8312556,36.608032 27.7580892,36.4376735 27.6117542,36.3545706 C27.4654193,36.2714677 27.2181674,36.2299169 26.8699911,36.2299169 L26.3023152,36.2299169 L26.3023152,37.4847645 Z M26.3023152,39.8448753 L27.1121995,39.8448753 C27.4502837,39.8448753 27.703843,39.7991694 27.8728851,39.7077562 C28.0419272,39.616343 28.126447,39.4362894 28.126447,39.16759 C28.126447,38.8988906 28.0368813,38.7216071 27.8577471,38.6357341 C27.6786129,38.5498611 27.3922549,38.5069252 26.9986643,38.5069252 L26.3023152,38.5069252 L26.3023152,39.8448753 Z M32.2288513,35.132964 L33.4096171,35.132964 L33.4096171,40.9418283 L32.2288513,40.9418283 L32.2288513,35.132964 Z M36.60374,40.9418283 L36.60374,35.132964 L37.7845058,35.132964 L37.7845058,39.7867036 L40.0400712,39.7867036 L40.0400712,40.9418283 L36.60374,40.9418283 Z M46.6099733,35.132964 L46.6099733,36.2880886 L43.9759573,36.2880886 L43.9759573,37.4847645 L46.3450579,37.4847645 L46.3450579,38.5900277 L43.9759573,38.5900277 L43.9759573,39.7950139 L46.6932324,39.7950139 L46.6932324,40.9418283 L42.7951915,40.9418283 L42.7951915,35.132964 L46.6099733,35.132964 Z M51.8780053,36.2548476 L51.8780053,40.9418283 L50.6972395,40.9418283 L50.6972395,36.2548476 L49.1985752,36.2548476 L49.1985752,35.132964 L53.3766696,35.132964 L53.3766696,36.2548476 L51.8780053,36.2548476 Z M59.9465717,35.132964 L59.9465717,36.2880886 L57.3125557,36.2880886 L57.3125557,37.4847645 L59.6816563,37.4847645 L59.6816563,38.5900277 L57.3125557,38.5900277 L57.3125557,39.7950139 L60.0298308,39.7950139 L60.0298308,40.9418283 L56.1317898,40.9418283 L56.1317898,35.132964 L59.9465717,35.132964 Z M66.7435441,40.9418283 L66.2515583,39.6869806 L64.0338379,39.6869806 L63.5418522,40.9418283 L62.2853963,40.9418283 L64.5712378,35.132964 L65.7141585,35.132964 L68,40.9418283 L66.7435441,40.9418283 Z M65.1464826,36.8614958 L64.4804096,38.5484765 L65.8049866,38.5484765 L65.1464826,36.8614958 Z" id="#MOBILETEA"></path>
                </g>
            </g>
        </g>
    </g>
</svg>