<?xml version="1.0" encoding="UTF-8" standalone="no"?>
<svg width="93px" height="40px" viewBox="0 0 93 40" version="1.1" xmlns="http://www.w3.org/2000/svg" xmlns:xlink="http://www.w3.org/1999/xlink">
    <!-- Generator: Sketch 39.1 (31720) - http://www.bohemiancoding.com/sketch -->
    <title>logo_definitivo-2</title>
    <desc>Created with Sketch.</desc>
    <defs></defs>
    <g id="Page-1" stroke="none" stroke-width="1" fill="none" fill-rule="evenodd">
        <g id="layout" transform="translate(-661.000000, -2683.000000)" fill="#FFFFFF">
            <g id="logo_definitivo-2" transform="translate(661.000000, 2683.000000)">
                <g id="Group">
                    <g transform="translate(8.669492, 10.196078)" id="Shape">
                        <path d="M58.3472542,21.5607843 L58.3472542,21.5607843 C53.4127373,21.5607843 51.5022966,19.025098 51.5022966,19.025098 L52.1485678,15.1309804 L54.6532627,15.2713725 L54.7967034,17.5647059 C54.7967034,17.5647059 55.6699576,18.7819608 58.7492034,18.7819608 C60.3901017,18.7819608 62.3580763,18.3035294 63.0043475,16.6619608 C63.0043475,16.6619608 63.0114407,16.6258824 63.0114407,16.6172549 C63.0532119,16.5301961 63.071339,16.44 63.0989237,16.3498039 C63.1146864,16.2533333 63.1422712,16.1568627 63.1619746,16.0627451 C63.2809831,15.4196078 63.1950763,14.8352941 62.9680932,14.4266667 C62.373839,13.3513725 60.7770763,12.9576471 59.0400254,12.5317647 C58.7255593,12.4462745 58.3937542,12.3764706 58.0698305,12.2909804 C57.8759492,12.2368627 57.7033475,12.1960784 57.5110424,12.1396078 C55.0914661,11.4462745 52.9453729,10.3090196 53.5743051,6.76392157 C53.6160763,6.53019608 53.6688814,6.30117647 53.7208983,6.07686275 C54.7178898,2.42745098 58.1163305,0.90745098 61.6605763,0.724705882 C61.9119915,0.705882353 62.1744407,0.698039216 62.4258559,0.698039216 C65.2410763,0.698039216 67.6575,1.40078431 68.4093814,1.74901961 L67.6756271,5.84156863 L67.1444237,5.84156863 L64.9266102,5.84156863 L64.8919322,4.19764706 C64.8990254,3.92862745 64.8919322,3.79137255 64.5948051,3.71215686 C64.0706949,3.52156863 62.9412966,3.2854902 61.6156525,3.2854902 C61.1601102,3.2854902 60.7479153,3.32235294 60.3759153,3.38039216 L60.3656695,3.38039216 C58.3133644,3.69490196 57.1973644,4.80705882 56.9522542,6.21568627 C56.5747373,8.33647059 58.6104915,8.8572549 60.9102712,9.4745098 C61.0135169,9.50901961 61.135678,9.53568627 61.2420763,9.57019608 C62.1578898,9.81490196 63.0878898,10.0737255 63.9280424,10.4384314 C65.4570254,11.1145098 66.6439576,12.1788235 66.6786356,14.2188235 C66.6786356,14.2635294 66.6896695,14.305098 66.6896695,14.3498039 C66.6967627,14.7317647 66.6439576,15.1411765 66.5848475,15.574902 C66.1899915,18.0776471 64.5648559,21.5607843 58.3472542,21.5607843 L58.3472542,21.5607843 Z"></path>
                        <path d="M23.9538051,11.0023529 C25.0327627,4.90431373 28.9032966,0.698823529 35.5929915,0.698823529 C42.2700763,0.698823529 44.1087966,4.93803922 43.0779153,10.7788235 C41.9130508,17.3145098 38.1946271,21.5529412 31.5072966,21.5529412 C24.7025339,21.5529412 22.8622373,17.2015686 23.9538051,11.0023529 L23.9538051,11.0023529 Z M39.3531864,11.0023529 C40.2642712,5.91215686 38.7888814,3.66196078 34.9877034,3.66196078 C31.1518475,3.66196078 28.5249915,5.91215686 27.6186356,11.0486275 C26.702822,16.2258824 28.2586017,18.7121569 32.1267712,18.7121569 C35.9247966,18.7113725 38.4153051,16.3396078 39.3531864,11.0023529 L39.3531864,11.0023529 Z"></path>
                        <path d="M48.2189237,17.9898039 C48.1487797,18.3819608 48.1385339,18.5482353 48.2709407,18.6227451 L50.4603814,19.067451 L50.1750763,21.1647059 L46.4621695,21.1647059 C46.3329153,21.1647059 46.221,21.1647059 46.0878051,21.1529412 C45.0569237,21.1356863 44.419322,20.9552941 44.3074068,19.7898039 C44.2900678,19.7278431 44.2900678,19.6501961 44.2900678,19.5741176 C44.2616949,18.9827451 44.3420847,18.1803922 44.5454237,17.0886275 L46.8751525,5.18117647 C46.9555424,4.75607843 46.9894322,4.3827451 46.5149746,4.3827451 L44.157661,4.36627451 L44.5454237,2.32156863 L48.3166525,1.16627451 L51.2051695,1.16627451 L48.2189237,17.9898039 L48.2189237,17.9898039 Z"></path>
                        <path d="M80.090339,10.6478431 L80.0643305,10.7701961 C82.6762119,11.2109804 83.7969407,12.8384314 83.3035678,15.574902 C82.6241949,19.3827451 78.9034068,21.545098 74.4669915,21.545098 L74.4669915,21.545098 L74.1769576,21.545098 C71.2309068,21.545098 68.5370593,20.5882353 67.3422458,19.0156863 L67.9893051,15.1301961 L70.4971525,15.2611765 L70.6311356,17.572549 C71.2781949,18.2760784 73.2981864,18.7105882 74.8815508,18.7105882 C76.8424322,18.7105882 79.2888051,17.972549 79.7427712,15.4031373 C80.1360508,13.1929412 78.9041949,12.2015686 76.4940763,12.2015686 C75.7532288,12.2015686 75.1069576,12.2635294 74.2069068,12.4196078 L74.6522034,9.8745098 L76.3892542,9.71686275 C78.9908898,9.46666667 79.9264068,8.10980392 80.2826441,6.09176471 C80.555339,4.53647059 79.3668305,3.39137255 77.1821186,3.39137255 C75.3055678,3.39137255 73.6449661,3.87764706 73.0278559,5.83294118 L69.6940424,5.83294118 C70.6256186,1.53098039 74.8334746,0.724705882 77.8480932,0.724705882 C82.3609576,0.724705882 84.4384831,2.7145098 83.8986102,5.75529412 C83.4438559,8.25803922 82.3357373,9.93568627 80.090339,10.6478431 L80.090339,10.6478431 Z"></path>
                        <path d="M20.8871695,18.7568627 C20.3126186,18.6792157 20.2842458,18.5811765 20.3993136,17.9647059 L22.1868051,7.84156863 C22.9386864,3.60078431 21.7690932,0.725490196 17.2727797,0.725490196 C14.6608983,0.725490196 12.2255593,1.82666667 10.0605508,3.14117647 C9.89110169,3.24313725 9.71771186,3.34039216 9.55062712,3.44470588 L9.44895763,3.45254902 L9.78864407,1.16627451 L7.51881356,1.16627451 L4.03604237,2.22666667 L3.75704237,2.32156863 L3.35509322,4.36627451 L5.71398305,4.3827451 C6.15770339,4.37411765 6.15770339,4.69568627 6.09701695,5.07843137 C6.08598305,5.11215686 6.08598305,5.14509804 6.07967797,5.18117647 L5.95751695,5.87764706 L3.81615254,17.9647059 C3.71211864,18.5552941 3.61754237,18.6627451 3.04929661,18.7388235 L2.9074322,18.7568627 L1.04979661,19.0078431 L0.679372881,21.1811765 L9.63101695,21.1811765 L9.99592373,19.0509804 L9.99592373,19.0392157 L8.92484746,18.9027451 L7.8585,18.7568627 C7.28158475,18.6792157 7.25557627,18.5984314 7.37064407,17.9733333 L9.44895763,6.25019608 C9.46472034,6.2345098 9.49072881,6.22588235 9.51358475,6.2054902 C11.4642203,4.82352941 13.7411441,3.76470588 15.9534407,3.76470588 C18.8435339,3.76470588 18.913678,6.2054902 18.4762627,8.73568627 L16.8353644,17.9639216 C16.7376356,18.5035294 16.5098644,18.7019608 15.9967881,18.7380392 L14.0761017,19.0078431 L13.6985847,21.1811765 L22.6967288,21.1811765 L23.0687288,19.04 L20.8871695,18.7568627 L20.8871695,18.7568627 Z"></path>
                    </g>
                    <g id="Shape">
                        <path d="M17.1301271,36.5976471 L16.8787119,37.0682353 C15.8628051,38.7011765 13.5945508,39.5890196 11.5934746,39.5521569 C11.5059915,39.5521569 11.4200847,39.5458824 11.3310254,39.534902 C9.77051695,39.4329412 8.62377966,38.9796078 7.54245763,38.5529412 C6.57383898,38.1694118 5.67221186,37.825098 4.57276271,37.7466667 C4.52783898,37.734902 4.48527966,37.734902 4.44350847,37.734902 C3.48986441,37.6831373 2.94132203,37.8415686 1.9640339,38.5694118 L1.91674576,38.5960784 L0.347567797,37.2329412 C1.3595339,36.2407843 2.28559322,35.5372549 3.44809322,35.2501961 C3.85240678,35.1466667 4.28666949,35.0909804 4.76585593,35.1129412 C4.86358475,35.1129412 4.95816102,35.1129412 5.06298305,35.1192157 C5.86688136,35.1811765 6.59905932,35.3215686 7.30916949,35.5537255 C7.82224576,35.7207843 8.27542373,35.9105882 8.71914407,36.0941176 L9.01942373,36.2219608 C9.75317797,36.5262745 10.572839,36.8227451 11.6462797,36.9113725 C11.7053898,36.9113725 11.7786864,36.9168627 11.8488305,36.9168627 C12.6243559,36.934902 13.403822,36.7192157 13.9752203,36.3435294 C14.2605254,36.1545098 14.4851441,35.9262745 14.6672034,35.6839216 L14.7121271,35.6062745 L17.1301271,36.5976471 L17.1301271,36.5976471 Z"></path>
                        <polygon points="61.0978475 4.49098039 63.6127881 6.65490196 62.0995678 8.38509804 60.6312712 7.11215686 57.7443305 4.62901961 57.8735847 3.94980392 61.6905254 1.22039216 62.9137119 0.336470588 64.2574831 2.20313725 61.1088814 4.4627451 61.0978475 4.47372549"></polygon>
                    </g>
                </g>
            </g>
        </g>
    </g>
</svg>