<?xml version="1.0" encoding="UTF-8" standalone="no"?>
<svg width="71px" height="74px" viewBox="0 0 71 74" version="1.1" xmlns="http://www.w3.org/2000/svg" xmlns:xlink="http://www.w3.org/1999/xlink">
    <!-- Generator: Sketch 39.1 (31720) - http://www.bohemiancoding.com/sketch -->
    <title>Shape</title>
    <desc>Created with Sketch.</desc>
    <defs></defs>
    <g id="Page-1" stroke="none" stroke-width="1" fill="none" fill-rule="evenodd">
        <g id="layout" transform="translate(-694.000000, -2553.000000)" stroke="#230061" fill="#230061">
            <path d="M718.709105,2626 C708.069105,2626 699.429105,2617.36 699.429105,2606.64 C699.429105,2604.48 699.589105,2602.88 699.749105,2601.44 C699.989105,2599.2 700.149105,2597.44 699.669105,2594.24 C699.109105,2590.4 697.189105,2580 696.069105,2573.84 C695.589105,2571.2 695.189105,2569.2 695.109105,2568.56 C694.629105,2565.84 695.749105,2563.84 698.149105,2563.28 C699.109105,2563.04 700.069105,2563.12 700.869105,2563.36 C700.709105,2562.8 700.629105,2562.4 700.629105,2562.24 C700.069105,2560 701.189105,2557.92 703.269105,2557.2 C703.749105,2557.04 704.309105,2556.96 704.789105,2556.96 C706.469105,2556.96 707.989105,2558 708.629105,2559.6 C709.189105,2561.04 716.229105,2584.56 716.629105,2586.32 C716.869105,2587.44 717.269105,2587.44 717.589105,2587.44 C717.749105,2587.44 718.389105,2587.28 718.549105,2586.4 C718.789105,2584.96 725.669105,2559.28 726.629105,2556.88 C727.269105,2555.04 728.789105,2554 730.709105,2554 C731.189105,2554 731.669105,2554.08 732.149105,2554.16 C734.549105,2554.72 735.669105,2556.96 735.509105,2558.96 C736.229105,2558.56 737.109105,2558.24 737.989105,2558.24 C738.389105,2558.24 738.789105,2558.32 739.109105,2558.4 C741.669105,2558.96 743.269105,2561.28 742.869105,2564 C742.389105,2567.28 738.469105,2588.4 738.069105,2590.16 C737.749105,2591.76 737.029105,2597.36 737.189105,2599.76 C737.349105,2603.12 739.589105,2605.36 742.709105,2605.36 C744.469105,2605.36 746.229105,2604.32 748.309105,2603.12 C750.789105,2601.6 753.669105,2599.92 757.349105,2599.76 L757.989105,2599.76 C759.829105,2599.76 761.349105,2600.16 762.469105,2600.88 C763.589105,2601.6 764.309105,2602.64 764.469105,2603.84 C764.869105,2606.24 763.109105,2608.56 760.149105,2609.52 C758.229105,2610.16 755.749105,2612.08 753.109105,2614.16 C749.829105,2616.72 746.389105,2619.44 743.189105,2620.32 C741.269105,2620.88 739.349105,2621.52 737.349105,2622.24 C732.069105,2624 726.309105,2626 718.709105,2626 L718.709105,2626 Z M699.269105,2565.04 C699.029105,2565.04 698.709105,2565.04 698.389105,2565.12 C697.029105,2565.44 696.549105,2566.48 696.789105,2568.16 C696.869105,2568.8 697.269105,2570.88 697.749105,2573.44 C698.949105,2580.08 700.789105,2590.08 701.349105,2593.92 C701.829105,2597.36 701.669105,2599.36 701.429105,2601.6 C701.269105,2602.96 701.189105,2604.56 701.189105,2606.64 C701.189105,2616.24 709.029105,2624.08 718.629105,2624.08 C725.829105,2624.08 731.269105,2622.16 736.549105,2620.32 C738.629105,2619.6 740.549105,2618.88 742.549105,2618.4 C745.349105,2617.6 748.629105,2615.04 751.749105,2612.56 C754.549105,2610.4 757.189105,2608.32 759.429105,2607.6 C761.749105,2606.8 762.629105,2605.2 762.469105,2604 C762.229105,2602.48 760.469105,2601.52 757.909105,2601.52 L757.349105,2601.52 C754.149105,2601.68 751.669105,2603.2 749.269105,2604.64 C747.109105,2605.92 745.029105,2607.2 742.709105,2607.2 C738.549105,2607.2 735.509105,2604.16 735.269105,2599.84 C735.109105,2597.2 735.829105,2591.52 736.229105,2589.76 C736.629105,2588 740.549105,2566.96 740.949105,2563.68 C741.189105,2561.92 740.309105,2560.56 738.709105,2560.24 C738.469105,2560.16 738.229105,2560.16 737.989105,2560.16 C736.709105,2560.16 735.749105,2560.88 735.349105,2562.08 C734.869105,2563.6 730.789105,2581.52 728.709105,2590.8 C728.629105,2591.28 728.069105,2591.6 727.589105,2591.52 C727.109105,2591.44 726.789105,2590.88 726.869105,2590.4 C727.109105,2589.2 733.189105,2560.8 733.589105,2559.2 C733.829105,2558.16 733.429105,2556.48 731.749105,2556.08 C731.429105,2556 731.109105,2555.92 730.789105,2555.92 C729.669105,2555.92 728.869105,2556.48 728.389105,2557.52 C727.429105,2559.92 720.549105,2585.52 720.389105,2586.64 C720.149105,2588.4 718.709105,2589.28 717.509105,2589.28 C716.069105,2589.28 715.189105,2588.4 714.709105,2586.72 C714.389105,2585.36 707.349105,2561.68 706.789105,2560.24 C706.549105,2559.6 705.829105,2558.8 704.709105,2558.8 C704.389105,2558.8 704.069105,2558.88 703.829105,2558.96 C702.629105,2559.36 702.069105,2560.48 702.389105,2561.76 C702.869105,2563.6 709.349105,2590.88 709.429105,2591.12 C709.589105,2591.6 709.269105,2592.16 708.709105,2592.24 C708.229105,2592.4 707.669105,2592.08 707.589105,2591.52 C707.509105,2591.28 701.909105,2568 701.509105,2566.32 C701.109105,2565.2 699.749105,2565.04 699.269105,2565.04 L699.269105,2565.04 Z" id="Shape"></path>
        </g>
    </g>
</svg>